<svg width="201" height="90" viewBox="0 0 201 90" fill="none" xmlns="http://www.w3.org/2000/svg">
<g clip-path="url(#clip0)">
<path d="M12.1945 76.1114C9.37147 76.1883 7.24506 74.6507 5.00867 73.3437C4.09211 72.8056 3.06557 72.3827 2.07569 72.229C0.829171 71.9983 0.132588 71.537 0.242575 70.1532C0.279237 69.6919 0.279237 69.2691 0.242575 68.8078C0.0226016 66.9627 0.609197 65.8095 2.77227 65.8479C2.77227 65.0023 2.77227 64.2335 2.77227 63.5031C2.73561 46.1282 2.91892 28.7918 2.66228 11.417C2.58896 3.72897 7.90498 -0.0381488 13.551 0.000291197C49.6633 0.154051 85.7756 0.0771711 121.888 0.0771711C128.744 0.0771711 132.557 4.03649 132.593 11.1863C132.593 19.2587 132.593 27.3311 132.593 35.4035C132.593 36.0954 132.593 36.7873 132.593 37.633C135.343 37.633 138.019 37.633 140.879 37.633C140.879 36.8642 140.879 36.0954 140.879 35.365C140.879 27.2927 140.879 19.2203 140.879 11.1479C140.879 4.03649 144.692 0.0771711 151.401 0.0771711C163.133 0.0771711 174.865 0.0771711 186.597 0.0771711C192.976 0.0771711 196.826 4.11337 196.862 10.8404C196.862 28.7918 196.862 46.7048 196.862 64.6563C196.862 65.4251 196.862 66.1939 196.862 66.9243C198.769 67.8084 199.832 70.5376 198.805 72.3827C198.512 72.9593 197.522 73.4206 196.862 73.3822C195.066 73.3053 193.599 73.9588 192.023 74.766C190.446 75.5732 188.65 75.9192 186.67 76.5342C186.413 69.9226 184.104 64.8869 179.374 61.2351C176.001 58.6212 172.188 57.4296 168.009 57.7371C159.357 58.3906 152.024 65.3098 151.511 75.9576C145.865 75.9576 140.219 75.9576 134.353 75.9576C133.986 69.6151 131.567 64.3488 126.361 60.7354C123.098 58.4675 119.468 57.4296 115.582 57.7371C106.526 58.4675 100.844 64.7716 99.084 75.9961C81.9627 75.9961 64.8048 75.9961 47.5002 75.9961C47.1702 70.0379 45.0072 65.0023 40.3511 61.3505C37.1248 58.8134 33.4219 57.5833 29.3891 57.6987C20.4068 57.9293 14.9075 63.7722 12.1945 76.1114ZM168.156 22.8721C168.156 25.486 168.119 28.1383 168.156 30.7523C168.192 34.7884 171.015 37.7099 174.865 37.7868C176.881 37.8252 178.898 37.8252 180.914 37.7868C185.094 37.7483 187.917 34.8269 187.953 30.4063C187.99 25.3322 187.99 20.2966 187.953 15.2225C187.917 10.9941 185.24 8.07268 181.281 7.84204C179.081 7.72672 176.881 7.68828 174.682 7.84204C170.759 8.11112 168.192 11.0326 168.156 15.1456C168.119 17.7211 168.156 20.2966 168.156 22.8721Z" fill="#56FF14"/>
<path d="M116.865 63.4262C123.574 63.4647 128.927 69.0769 128.927 76.1114C128.927 83.069 123.428 88.7966 116.755 88.7966C110.009 88.7581 104.693 83.0306 104.73 75.8423C104.803 68.9231 110.193 63.4262 116.865 63.4262Z" fill="#56FF14"/>
<path d="M29.9023 63.4262C36.6482 63.3878 42.0375 69 42.0375 76.0345C42.0375 83.069 36.6482 88.7966 30.0123 88.7966C23.3398 88.835 17.8771 83.1459 17.8771 76.1498C17.8771 69.0385 23.1565 63.4647 29.9023 63.4262Z" fill="#56FF14"/>
<path d="M169.219 63.4262C175.891 63.4647 181.354 69.1922 181.281 76.1498C181.207 83.1075 175.671 88.835 169.072 88.7966C162.436 88.7581 156.974 82.9537 157.047 75.9961C157.084 68.9231 162.436 63.3878 169.219 63.4262Z" fill="#56FF14"/>
</g>
<defs>
<clipPath id="clip0">
<rect width="200" height="89.7222" fill="white" transform="translate(0.117653)"/>
</clipPath>
</defs>
</svg>
