<svg width="77" height="80" viewBox="0 0 87 100" fill="none" xmlns="http://www.w3.org/2000/svg">
<g clip-path="url(#clip0)">
<path d="M44.6995 67.4084C44.6995 65.1831 44.6995 62.9753 44.6995 60.75C44.6995 58.7174 45.5055 57.8237 47.5556 57.4733C51.9187 56.7373 56.0189 55.3005 59.6285 52.6722C61.0303 51.6559 62.2919 50.4118 63.5535 49.2027C64.8151 48.0112 66.5148 47.9411 67.6538 49.2203C71.4736 53.4957 76.3799 55.8262 81.8644 57.1053C82.6879 57.298 83.529 57.4207 84.3526 57.6134C85.8069 57.9464 86.7531 59.0678 86.7707 60.5397C86.7882 64.9553 86.8758 69.3534 86.7356 73.769C86.5779 78.7454 84.5628 83.0734 81.6016 86.9984C77.659 92.2376 72.6301 96.2327 67.058 99.5794C66.252 100.07 65.3583 100.14 64.5523 99.667C57.5083 95.4792 51.3229 90.3977 47.3278 83.0559C45.5756 79.8318 44.6469 76.3624 44.6995 72.6651C44.717 70.9129 44.6995 69.1607 44.6995 67.4084ZM63.0804 73.9443C61.9765 72.8228 60.9427 71.7715 59.8914 70.7202C59.0678 69.8966 58.0866 69.5462 56.9476 69.7915C55.6159 70.0718 54.6522 70.8428 54.2492 72.157C53.8637 73.4536 54.1791 74.6452 55.1603 75.6089C56.9476 77.4137 58.7524 79.201 60.5397 81.0058C62.1342 82.6003 64.0091 82.6353 65.6037 81.0233C69.0731 77.5714 72.5425 74.102 76.0119 70.615C77.5013 69.1081 77.5539 66.9178 76.1521 65.5335C74.8029 64.2019 72.7352 64.2895 71.2283 65.7613C69.6864 67.2858 68.1794 68.8102 66.6375 70.3347C65.481 71.5262 64.3245 72.7002 63.0804 73.9443Z" fill="#56FF14"/>
<path d="M37.7081 75.3811C37.305 75.3811 37.0247 75.3811 36.7268 75.3811C25.3373 75.3811 13.9478 75.3811 2.55825 75.3811C0.560708 75.3811 0.0175152 74.8379 0.0175152 72.8403C0.0175152 68.67 -0.0525741 64.4822 0.0525599 60.3119C0.262828 51.1652 6.92132 42.9998 15.7876 40.8446C16.0505 40.7745 16.2958 40.7394 16.5586 40.6693C17.7501 40.3364 18.8015 40.5116 19.9755 41.0373C26.6164 43.9986 33.3275 43.9285 39.9684 41.0198C41.1424 40.5116 42.1938 40.4065 43.4028 40.6518C47.7659 41.563 51.4631 43.6481 54.4769 46.9248C54.6346 47.1 54.7748 47.2752 55.0026 47.5731C54.4069 47.9061 53.8812 48.239 53.3205 48.5193C50.8673 49.7809 48.2215 50.4994 45.523 50.99C41.0548 51.8135 37.7431 55.686 37.7081 60.2243C37.673 64.9903 37.7081 69.7389 37.7081 74.505C37.7081 74.7503 37.7081 74.9956 37.7081 75.3811Z" fill="#56FF14"/>
<path d="M30.0683 36.1836C20.0981 36.1836 11.9678 28.0533 11.9678 18.0831C11.9853 8.0778 20.0806 0 30.0859 0C40.0911 0 48.204 8.11284 48.204 18.0831C48.1864 28.0533 40.0561 36.1836 30.0683 36.1836Z" fill="#56FF14"/>
</g>
<defs>
<clipPath id="clip0">
<rect width="86.8057" height="100" fill="white"/>
</clipPath>
</defs>
</svg>
