<svg width="200" height="80" viewBox="0 0 200 80" fill="none" xmlns="http://www.w3.org/2000/svg">
<path d="M8.00419 31.163L11.1954 31.5671C10.9338 30.1024 10.9861 28.5366 11.4047 27.0214C12.1371 24.1425 14.0204 21.7686 16.6361 20.2534C18.4672 19.1928 20.5598 18.6877 22.6524 18.6877C26.6806 18.7382 30.3427 20.7585 32.3829 24.092C33.9524 26.6174 34.3709 29.5973 33.6385 32.4762C33.5862 32.7287 33.4816 32.9308 33.4292 33.1833C45.1478 33.3348 65.5506 33.5369 81.7682 33.7389C81.1405 31.8196 81.0358 29.6983 81.6113 27.678C82.3437 24.7991 84.227 22.4252 86.8428 20.91C88.6738 19.8494 90.7141 19.3443 92.8067 19.3443C96.8349 19.3948 100.497 21.4151 102.537 24.7486C104.107 27.2739 104.525 30.2539 103.793 33.1328C103.741 33.4358 103.636 33.6884 103.531 33.9914C104.735 33.9914 105.624 33.9914 105.99 34.0419C111.065 34.0924 112.948 24.395 108.972 19.3443C104.996 14.2431 86.6858 12.9299 84.6979 12.9299C84.6979 12.9299 71.5668 0.959639 48.0774 0.707102C30.9704 0.505073 17.7871 6.26291 11.9278 9.34385C9.73058 10.5055 8.47502 11.0611 8.42271 14.4956C8.37039 17.9301 8.31807 19.7484 8.31807 19.7484C6.33011 19.7484 4.5514 21.2636 4.5514 23.1829L4.49908 27.6275C4.44677 29.5973 6.01622 31.163 8.00419 31.163ZM22.6524 9.79842C24.5357 7.07102 31.4936 3.03044 47.5543 3.18196C64.8182 3.33348 74.758 9.34385 78.734 12.5763C79.9895 13.5865 78.8909 14.1926 77.6877 14.1926C76.5368 14.1926 26.8899 11.9197 24.4834 11.8692C22.1815 11.7682 21.8676 10.9096 22.6524 9.79842Z" fill="#56FF14"/>
<path d="M92.8067 21.0615C91.028 21.0615 89.3016 21.5161 87.7845 22.3747C85.5872 23.6374 84.0178 25.7082 83.3377 28.0821C82.7099 30.5064 83.0761 33.0318 84.384 35.1531C86.1104 37.9815 89.197 39.6987 92.5974 39.6987C94.3761 39.6987 96.1025 39.2442 97.6197 38.3856C99.8169 37.1229 101.439 35.0521 102.066 32.6782C102.694 30.2539 102.328 27.7285 101.02 25.6072C99.2938 22.8293 96.2072 21.1121 92.8067 21.0615ZM97.4627 31.5671C97.1488 32.7792 96.3641 33.8399 95.2132 34.446C94.4285 34.9005 93.5391 35.1026 92.6498 35.1026C90.9234 35.1026 89.3539 34.244 88.4646 32.7792C87.7845 31.7186 87.6275 30.4054 87.9414 29.1932C88.2553 27.981 89.04 26.9204 90.1909 26.3143C90.9757 25.8597 91.865 25.6577 92.7544 25.6577C94.4808 25.6577 96.0502 26.5163 96.9396 27.981C97.6197 29.0922 97.7766 30.3549 97.4627 31.5671Z" fill="#56FF14"/>
<path d="M22.6524 20.405C20.8737 20.405 19.1473 20.8595 17.6301 21.7181C15.4329 22.9808 13.8635 25.0516 13.1834 27.4255C12.5556 29.8498 12.9218 32.3752 14.2297 34.4965C15.9561 37.3249 19.0426 39.0421 22.4431 39.0421C24.2218 39.0421 25.9482 38.5876 27.4653 37.729C29.6626 36.4663 31.2843 34.3955 31.9121 32.0216C32.5399 29.5973 32.1737 27.0719 30.8658 24.9506C29.1394 22.1727 26.0528 20.4555 22.6524 20.405ZM27.3084 30.9105C26.9945 32.1226 26.2098 33.1833 25.0589 33.7894C24.2741 34.244 23.3848 34.446 22.4954 34.446C20.769 34.446 19.1996 33.5874 18.3102 32.1226C17.6301 31.062 17.4732 29.7488 17.7871 28.5366C18.101 27.3245 18.8857 26.2638 20.0366 25.6577C20.8213 25.2031 21.7107 25.0011 22.6001 25.0011C24.3264 25.0011 25.8959 25.8597 26.7852 27.3245C27.413 28.4356 27.6223 29.6983 27.3084 30.9105Z" fill="#56FF14"/>
<path d="M45.3047 51.77C42.7413 51.77 40.2302 52.4266 38.033 53.7398C34.8417 55.6085 32.5922 58.5885 31.7029 62.0735C30.8135 65.5585 31.389 69.195 33.3246 72.276C35.888 76.3165 40.3348 78.7914 45.3047 78.7914C47.8682 78.7914 50.3793 78.1348 52.5765 76.8216C55.7677 74.9528 58.0173 71.9729 58.9066 68.4879C59.796 65.0029 59.2205 61.3664 57.2849 58.2854C54.6691 54.1943 50.2223 51.77 45.3047 51.77ZM52.2626 66.9222C51.7918 68.7404 50.6409 70.2557 49.0191 71.2153C47.8682 71.8719 46.6126 72.2254 45.3047 72.2254C42.7413 72.2254 40.4394 70.9628 39.1316 68.892C38.1376 67.3262 37.8237 65.4575 38.2945 63.6392C38.7654 61.8209 39.9163 60.3057 41.5381 59.3461C42.689 58.6895 43.9445 58.3359 45.2524 58.3359C47.8159 58.3359 50.1177 59.5986 51.4256 61.6694C52.4196 63.2351 52.7335 65.1039 52.2626 66.9222Z" fill="#56FF14"/>
<path d="M125.033 0H120.063C116.61 0 113.785 2.72739 113.785 6.06088V42.2746H7.16715V34.85C7.16715 33.6379 6.17316 32.6782 4.9176 32.6782H2.24954C0.993984 32.7287 0 33.6884 0 34.85V50.0527C0 51.871 1.51713 53.2852 3.34816 53.2852H14.125C13.9681 53.6388 13.9158 53.9923 13.9158 54.3964V57.1743H7.84724C6.90557 57.1743 6.12085 57.9319 6.12085 58.841C6.12085 59.7501 6.90557 60.5078 7.84724 60.5078H13.9681V61.9725C13.9681 63.7907 15.4852 65.2049 17.3162 65.2049H28.1454C28.1454 63.8917 28.3024 62.5786 28.6163 61.2654C29.401 58.1339 31.0751 55.356 33.4292 53.1842C33.6385 52.9822 33.8478 52.8306 34.057 52.6791L34.1093 52.6286C34.3186 52.4771 34.4755 52.3256 34.6848 52.174C34.7371 52.1235 34.7894 52.1235 34.8417 52.073C34.9987 51.972 35.1556 51.8205 35.3649 51.7195C35.6265 51.5175 35.888 51.3659 36.2019 51.2144C36.2542 51.1639 36.3066 51.1134 36.4112 51.1134C39.0793 49.5477 42.1658 48.689 45.3047 48.689C48.5483 48.689 51.6872 49.5477 54.3552 51.1639C56.6048 52.5276 58.5404 54.3459 60.0052 56.6692C61.6793 59.2956 62.5163 62.2755 62.5163 65.2554H128.015C129.898 65.2554 131.363 63.7907 131.363 62.023V6.06088C131.31 2.72739 128.485 0 125.033 0Z" fill="#56FF14"/>
<path d="M183.573 57.2248C182.422 55.7096 181.01 54.4974 179.388 53.5883C179.388 53.5883 179.336 53.5883 179.336 53.5377C179.126 53.4367 178.969 53.3357 178.76 53.2347C178.708 53.1842 178.656 53.1842 178.551 53.1337C178.394 53.0327 178.185 52.9822 178.028 52.8811C177.923 52.8306 177.871 52.7801 177.766 52.7801C177.609 52.7296 177.452 52.6791 177.295 52.5781C177.191 52.5276 177.086 52.4771 176.981 52.4771C176.824 52.4266 176.668 52.3761 176.511 52.3256C176.406 52.2751 176.249 52.2751 176.144 52.2246C175.987 52.174 175.883 52.1235 175.726 52.1235C175.569 52.073 175.464 52.073 175.307 52.0225C175.15 51.972 175.046 51.972 174.889 51.9215C174.732 51.871 174.575 51.871 174.418 51.871C174.313 51.871 174.156 51.8205 174.052 51.8205C173.843 51.8205 173.686 51.77 173.476 51.77C173.372 51.77 173.267 51.77 173.162 51.7195C172.849 51.7195 172.587 51.669 172.273 51.669C169.71 51.669 167.199 52.3256 165.001 53.6388C164.635 53.8408 164.217 54.0933 163.903 54.3459C163.536 54.5984 163.223 54.9014 162.856 55.154C162.543 55.457 162.229 55.7601 161.915 56.0631C161.601 56.3662 161.339 56.7197 161.078 57.0733C159.979 58.4875 159.194 60.1542 158.724 61.922C157.834 65.407 158.41 69.0435 160.345 72.1244C162.909 76.165 167.355 78.6399 172.325 78.6399C174.889 78.6399 177.4 77.9833 179.597 76.6701C182.788 74.8013 185.038 71.8214 185.927 68.3364C186.817 64.8514 186.241 61.2149 184.306 58.1339C184.044 57.8814 183.835 57.5783 183.573 57.2248ZM179.336 66.9222C178.865 68.7404 177.714 70.2557 176.092 71.2153C174.941 71.8719 173.686 72.2254 172.378 72.2254C169.814 72.2254 167.512 70.9628 166.205 68.892C165.211 67.3262 164.897 65.4575 165.368 63.6392C165.838 61.8209 166.989 60.3057 168.611 59.3461C169.762 58.6895 171.018 58.3359 172.325 58.3359C174.889 58.3359 177.191 59.5986 178.499 61.6694C179.493 63.2351 179.806 65.1039 179.336 66.9222Z" fill="#56FF14"/>
<path d="M196.547 52.0225C196.6 51.77 196.6 51.5175 196.6 51.2649C196.6 51.2649 196.6 49.6487 196.6 48.487C196.6 47.3253 195.396 47.2748 194.769 47.0728C192.624 46.3152 191.525 43.9919 192.362 41.9716C192.937 40.5574 194.245 39.5977 195.71 39.3957C196.024 39.3452 196.809 39.1432 196.233 37.8805C195.396 35.9612 193.67 34.3955 191.473 34.0419L177.818 30.86L159.822 12.2733C159.404 11.8692 158.88 11.6167 158.305 11.6167H136.699C136.123 11.6167 135.653 11.8187 135.286 12.1723C134.711 12.5258 134.345 13.1319 134.345 13.839V41.3655C134.345 41.4665 134.345 41.5675 134.397 41.719L134.449 56.6187V61.9725C134.449 63.8412 136.019 65.3565 137.954 65.3565H155.271C155.271 64.0433 155.428 62.7301 155.742 61.4169C156.108 59.9522 156.683 58.538 157.416 57.2753C157.939 56.3662 158.567 55.5075 159.247 54.6994C159.247 54.6994 159.247 54.6994 159.299 54.6489C159.508 54.3964 159.77 54.1438 159.979 53.8913L160.031 53.8408C160.241 53.6388 160.45 53.4367 160.711 53.2347C160.764 53.1842 160.816 53.1337 160.868 53.1337C161.13 52.9317 161.339 52.7296 161.601 52.5276C161.653 52.4771 161.705 52.4266 161.758 52.3761C162.281 51.972 162.856 51.568 163.484 51.2144C166.152 49.6487 169.239 48.7901 172.378 48.7901C176.197 48.7901 179.754 49.9517 182.684 52.073C182.684 52.073 182.684 52.073 182.736 52.073C182.945 52.2246 183.155 52.3761 183.364 52.5781C183.468 52.6791 183.573 52.7801 183.678 52.8306C183.835 52.9317 183.939 53.0832 184.096 53.1842C184.201 53.2852 184.306 53.3862 184.41 53.4872C184.567 53.6388 184.724 53.7903 184.881 53.9418C184.933 53.9923 184.986 54.0428 185.09 54.1438C185.3 54.3459 185.509 54.5984 185.718 54.8509C185.77 54.9519 185.875 55.0025 185.927 55.1035C186.084 55.3055 186.241 55.457 186.346 55.6591C186.398 55.7601 186.45 55.8106 186.503 55.9116C186.712 56.1641 186.869 56.4672 187.078 56.7197C188.752 59.3461 189.589 62.326 189.589 65.3059H196.495C198.431 65.3059 200 63.7907 200 61.922V55.457C199.895 53.5883 198.378 52.1235 196.547 52.0225ZM150.667 31.7186V23.2839C150.667 22.0717 149.673 21.1121 148.417 21.1121H145.749C144.494 21.1121 143.5 22.0717 143.5 23.2839V31.7186H139.681V15.6573H157.311L172.849 31.7186H150.667Z" fill="#56FF14"/>
</svg>
