<svg width="100" height="80" viewBox="0 0 122 101" fill="none" xmlns="http://www.w3.org/2000/svg">
<path d="M33.9983 87.2831C35.1133 84.0941 36.1614 81.2174 37.1204 78.3183C37.2096 78.0284 37.0089 77.5824 36.8528 77.2479C36.0276 75.553 34.9795 73.9474 34.3774 72.1857C33.4631 69.465 34.7119 67.4802 37.4772 66.8558C39.2166 66.4767 40.9561 66.5213 42.6063 67.2126C44.4572 67.9709 45.2155 69.4204 44.9032 71.4051C44.5464 73.5906 43.3868 75.3969 42.2495 77.2256C42.0265 77.5824 41.8927 78.1622 42.0042 78.519C42.9408 81.2843 43.922 84.0495 45.1932 86.8594C47.9584 78.1399 50.7237 69.4427 53.5336 60.6117C53.8681 60.8124 54.1357 60.9462 54.4033 61.1023C59.6662 64.4251 65.2413 67.0788 71.2848 68.6399C75.901 69.8441 77.9972 73.1892 78.6663 77.5601C79.313 81.7749 79.0454 86.012 78.4656 90.2045C78.3318 91.1634 77.8634 91.7655 76.9937 92.2338C70.2367 95.8688 63.0113 98.1212 55.496 99.5261C48.8281 100.775 42.0711 101.154 35.314 100.842C24.0745 100.329 13.3034 97.8982 3.15665 92.8806C1.48411 92.0777 0.480582 91.0519 0.36908 89.0449C0.123774 84.7186 -0.366838 80.3699 0.725888 76.0882C1.72941 72.1411 4.13787 69.5988 8.21887 68.5507C14.017 67.0788 19.3468 64.492 24.3868 61.3253C24.7213 61.1023 25.0558 60.9016 25.5464 60.5894C28.3563 69.465 31.1438 78.2291 33.9983 87.2831Z" fill="#56FF14"/>
<path d="M22.3797 44.6222C21.3316 44.9567 20.6403 44.2877 20.3281 43.4626C19.436 41.121 18.6109 38.7349 17.9196 36.3264C17.6297 35.3229 17.6297 34.1855 17.6297 33.1374C17.652 31.1304 18.2764 30.5283 20.2835 30.3499C20.0382 28.4097 19.6813 26.4919 19.5698 24.5517C19.2799 18.9543 20.4396 13.8252 24.8774 9.92256C25.4572 9.40965 26.1039 8.96364 26.5722 8.60683C25.9701 7.3803 25.3903 6.17607 24.6767 4.70424C27.0851 4.86034 29.0699 4.97184 31.0546 5.10565C34.5558 5.35095 38.0124 5.30635 41.4913 4.68194C45.4162 3.99062 50.5453 6.93429 52.084 10.7477C52.3739 11.439 52.6861 11.662 53.4221 11.7289C55.5406 11.9742 57.1462 13.1338 58.239 14.9402C59.2202 16.5681 59.7777 18.3745 59.7108 20.2254C59.5993 23.5928 59.2871 26.9379 59.0418 30.3275C60.8927 30.6175 61.584 31.3088 61.4725 33.5611C61.2941 36.9731 60.4244 40.229 58.8411 43.2619C58.3728 44.1539 57.7707 45.0459 56.4326 44.5107C56.1204 45.6926 55.8528 46.8969 55.496 48.0342C53.5782 54.0553 49.8317 58.337 43.5875 60.0319C36.8974 61.8605 27.7095 59.0729 24.0968 50.0635C23.4501 48.3464 22.9818 46.5177 22.3797 44.6222Z" fill="#56FF14"/>
<path d="M83.7954 78.519C83.4386 77.0249 83.2156 75.5976 82.7696 74.215C81.0301 68.8629 77.5735 65.2725 71.9984 63.823C66.5348 62.3957 61.5171 59.9873 56.6779 56.9098C57.4808 54.6574 58.8411 52.8511 61.0934 52.2044C66.6909 50.5987 71.9761 48.3464 76.9268 45.0682C79.2684 52.4274 81.5653 59.6751 83.9515 67.2126C84.8658 64.6035 85.7132 62.3288 86.4715 60.0096C86.583 59.6528 86.3599 59.1175 86.1815 58.7161C85.5125 57.1551 84.5759 55.6833 84.1745 54.0776C83.6839 52.1821 84.5982 50.844 86.516 50.4426C87.8095 50.175 89.259 50.175 90.5524 50.4203C92.6487 50.844 93.563 52.5166 92.8717 54.5682C92.4034 55.9955 91.6452 57.3335 90.9093 58.6492C90.597 59.2067 90.4409 59.6305 90.6862 60.2772C91.5114 62.4626 92.2473 64.6704 93.1393 67.1903C95.5478 59.6305 97.8447 52.3828 100.097 45.2912C103.197 46.8522 106.207 48.4356 109.307 49.8405C110.957 50.5987 112.697 51.1786 114.459 51.6023C118.584 52.5835 120.703 55.3933 121.037 59.3405C121.327 62.7525 120.97 66.2314 120.881 69.6657C120.859 70.4462 120.391 70.9814 119.677 71.3605C113.633 74.5941 107.166 76.512 100.432 77.6493C95.4363 78.4967 90.3963 78.6751 85.3341 78.5413C84.7989 78.5859 84.286 78.5413 83.7954 78.519Z" fill="#56FF14"/>
<path d="M100.231 0.980047C99.6957 2.13967 99.272 3.054 98.8259 4.03522C104.802 8.33922 104.869 14.4496 103.665 20.9613C105.472 21.3404 105.828 21.7418 105.784 23.6374C105.717 26.2243 105.025 28.6996 103.844 30.9966C103.531 31.621 102.773 32.0447 102.104 32.4238C101.168 36.2149 99.6734 39.783 96.306 42.1914C93.9867 43.864 91.333 44.7114 88.4785 44.6668C85.0665 44.6222 82.1228 43.3288 79.6921 40.9203C77.2836 38.5341 76.124 35.5013 75.4996 32.1785C74.4069 32.4684 73.8716 31.7994 73.4702 30.9966C72.3329 28.6773 71.6639 26.202 71.5078 23.6374C71.3963 21.8979 71.9984 21.2289 73.4702 21.0059C73.2472 18.6867 72.8904 16.3897 72.8235 14.0705C72.7789 12.777 73.0911 11.3944 73.4925 10.1456C74.1616 8.13852 75.5888 6.84509 77.7296 6.48828C78.354 6.39908 78.644 6.15377 78.9116 5.55166C80.2942 2.42958 84.063 0.467135 87.5865 1.04695C91.0654 1.62676 94.5442 1.35916 98.0231 1.11385C98.6475 1.09155 99.2496 1.04695 100.231 0.980047Z" fill="#56FF14"/>
</svg>
