<svg width="200" height="64" viewBox="0 0 200 64" fill="none" xmlns="http://www.w3.org/2000/svg">
<path d="M105.824 42.7559C103.997 42.7559 102.207 43.2456 100.641 44.2251C98.3669 45.6189 96.7637 47.8414 96.1298 50.4407C95.4959 53.04 95.9061 55.7522 97.2857 58.0501C99.1127 61.0638 102.282 62.9096 105.824 62.9096C107.651 62.9096 109.441 62.4199 111.007 61.4405C113.281 60.0467 114.885 57.8241 115.518 55.2248C116.152 52.6256 115.742 49.9133 114.363 47.6154C112.536 44.5641 109.366 42.7559 105.824 42.7559ZM110.82 54.0571C110.485 55.4132 109.665 56.5433 108.509 57.259C107.688 57.7488 106.794 58.0124 105.861 58.0124C104.034 58.0124 102.394 57.0707 101.462 55.5262C100.753 54.3584 100.53 52.9646 100.865 51.6085C101.201 50.2523 102.021 49.1222 103.177 48.4065C103.997 47.9168 104.892 47.6531 105.824 47.6531C107.651 47.6531 109.292 48.5948 110.224 50.1393C110.932 51.3071 111.156 52.7009 110.82 54.0571Z" fill="#56FF14"/>
<path d="M146.652 4.14375H143.11C140.649 4.14375 138.636 6.17795 138.636 8.6642V35.6739H118.949V34.4684C118.949 32.6603 117.495 31.1911 115.668 31.1911H114.512L89.1574 0.753408C88.7845 0.301363 88.1879 0 87.5914 0H84.6085C83.8628 0 83.1916 0.376704 82.8188 1.0171C82.4459 1.6575 82.4459 2.44858 82.8188 3.08897L83.9374 5.04784L72.8262 30.5507C72.8262 30.5507 72.8262 30.513 72.7889 30.513L74.0566 34.3554C74.0566 34.3178 74.0566 34.3178 74.0566 34.2801L85.5779 7.91079L98.8889 31.2288C97.3602 31.4925 96.2044 32.8486 96.2044 34.4684V35.6739H83.4526C82.1104 35.6739 81.0664 36.7663 81.0664 38.0848V41.4751C81.0664 42.8313 82.1476 43.886 83.4526 43.886H88.1507C88.0388 44.1497 88.0015 44.4134 88.0015 44.7148V47.5777H83.6391C82.9679 47.5777 82.4086 48.1428 82.4086 48.8209C82.4086 49.4989 82.9679 50.064 83.6391 50.064H88.0015V50.3654C88.0015 51.7215 89.0828 52.7763 90.3878 52.7763H93.6317C93.6317 51.7968 93.7435 50.8174 93.9672 49.838C94.5265 47.5024 95.7197 45.4305 97.3975 43.8107C97.5467 43.66 97.6958 43.547 97.8449 43.434L97.8822 43.3963C98.0314 43.2833 98.1432 43.1703 98.2924 43.0573C98.3297 43.0196 98.3669 43.0196 98.4042 42.982C98.5161 42.9066 98.6279 42.7936 98.7771 42.7183C98.9635 42.5676 99.1499 42.4546 99.3737 42.3416C99.4109 42.3039 99.4482 42.2662 99.5228 42.2662C99.8584 42.0779 100.194 41.8895 100.567 41.7012C101.35 41.3245 102.17 41.0231 102.99 40.8347C103.065 40.8347 103.14 40.7971 103.214 40.7971C103.363 40.7594 103.512 40.7217 103.662 40.7217C103.773 40.6841 103.885 40.6841 103.997 40.6464C104.109 40.6087 104.258 40.6087 104.37 40.6087C104.519 40.571 104.668 40.571 104.817 40.571C104.929 40.571 105.004 40.571 105.116 40.5334C105.377 40.5334 105.638 40.4957 105.861 40.4957C106.085 40.4957 106.309 40.4957 106.533 40.4957C106.607 40.4957 106.682 40.4957 106.719 40.4957C106.868 40.4957 107.017 40.5334 107.166 40.5334C107.241 40.5334 107.316 40.5334 107.39 40.571C107.539 40.571 107.688 40.6087 107.838 40.6464C107.912 40.6464 107.987 40.6841 108.061 40.6841C108.21 40.7217 108.36 40.7594 108.509 40.7594C108.583 40.7594 108.621 40.7971 108.695 40.7971C108.882 40.8347 109.068 40.9101 109.292 40.9477H109.329C109.553 41.0231 109.776 41.0984 109.963 41.1738C110.149 41.2491 110.373 41.3245 110.559 41.3998C110.597 41.3998 110.634 41.4375 110.671 41.4375C110.82 41.5128 111.007 41.5881 111.156 41.6635C111.529 41.8518 111.939 42.0779 112.275 42.3039C113.878 43.321 115.257 44.6771 116.301 46.41C117.495 48.3688 118.091 50.5914 118.091 52.8139H148.74C150.082 52.8139 151.126 51.7215 151.126 50.403V8.6642C151.126 6.17795 149.113 4.14375 146.652 4.14375Z" fill="#56FF14"/>
<path d="M70.4772 27.9515C66.5622 25.3145 53.9223 28.7425 52.5801 29.1946C52.5801 29.1946 40.8351 23.8454 24.9513 29.2699C13.3555 33.2253 5.89833 40.3827 2.69175 43.9614C1.49861 45.2798 0.752897 45.9956 1.57318 48.4442C2.39347 50.8927 2.80361 52.1735 2.80361 52.1735C1.46133 52.6256 0.641039 54.1324 1.08847 55.4885L2.13247 58.6528C2.5799 60.009 4.03404 60.7247 5.37633 60.2727L7.61347 59.783C7.09147 58.8035 6.7559 57.7111 6.64404 56.5433C6.45761 54.3584 7.12876 52.2112 8.50833 50.516C9.47776 49.3483 10.7455 48.4818 12.1623 47.9921C14.8842 47.0504 17.8298 47.6154 20.0296 49.4989C21.7075 50.9304 22.7142 52.8893 22.9006 55.1118C22.9006 55.3002 22.9379 55.4509 22.9379 55.6392C30.8425 52.9646 44.6382 48.2935 55.6002 44.5641C54.7054 43.3587 54.1461 41.8895 53.9969 40.345C53.8105 38.1601 54.4816 36.0129 55.8612 34.3178C56.8306 33.15 58.0984 32.2836 59.5152 31.7938C62.2371 30.8521 65.1826 31.4171 67.3825 33.3007C69.0604 34.7321 70.0671 36.691 70.2535 38.9135C70.2908 39.1396 70.2908 39.3656 70.2908 39.5916C71.1111 39.3279 71.6704 39.1019 71.9686 39.0266C73.6092 38.4615 74.2058 36.5403 73.9821 34.3554C73.9821 34.3554 73.7211 32.5096 72.7144 30.513C72.3788 29.722 71.4094 28.5918 70.4772 27.9515ZM48.1431 31.7562C47.3601 32.0199 13.3928 42.1909 11.7895 42.7183C10.1862 43.2456 9.77604 42.7183 9.99976 41.7388C10.5963 39.3656 14.2876 34.8828 25.1751 31.1534C36.8082 27.1604 44.9738 29.0439 48.4413 30.3624C49.5599 30.8144 48.9261 31.4548 48.1431 31.7562Z" fill="#56FF14"/>
<path d="M66.6368 34.3178C64.7725 32.7356 62.3116 32.2836 59.9999 33.037C58.8068 33.4513 57.7628 34.1671 56.9425 35.1465C55.7494 36.578 55.1901 38.3862 55.3392 40.232C55.4884 42.0779 56.3459 43.773 57.7628 44.9785C59.6271 46.5606 62.0879 47.0127 64.3996 46.2593C65.5928 45.8449 66.6368 45.1292 67.4571 44.1497C68.6502 42.7183 69.2095 40.9101 69.0604 39.0642C68.9112 37.1807 68.0536 35.5232 66.6368 34.3178ZM64.8843 41.9272C64.4742 42.4169 63.9522 42.7936 63.3183 42.982C62.1625 43.3963 60.8948 43.1326 59.9626 42.3416C59.2542 41.7388 58.8068 40.8724 58.7322 39.9306C58.6576 38.9889 58.9186 38.0848 59.5525 37.3691C59.9626 36.8793 60.4846 36.5026 61.1185 36.3143C62.2743 35.8999 63.5421 36.1636 64.4742 36.9547C65.1826 37.5574 65.6301 38.4238 65.7046 39.3656C65.7792 40.2697 65.4809 41.2114 64.8843 41.9272Z" fill="#56FF14"/>
<path d="M19.2466 50.516C17.3823 48.9339 14.9215 48.4818 12.6098 49.2352C11.4166 49.6496 10.3726 50.3654 9.55233 51.3448C8.35919 52.7763 7.7999 54.5844 7.94904 56.4303C8.09819 58.2761 8.95576 59.9713 10.3726 61.1768C12.2369 62.7589 14.6978 63.211 17.0095 62.4576C18.2026 62.0432 19.2466 61.3274 20.0669 60.348C21.26 58.9165 21.8193 57.1084 21.6702 55.2625C21.521 53.379 20.6635 51.6838 19.2466 50.516ZM17.4942 58.0878C17.084 58.5775 16.562 58.9542 15.9282 59.1426C14.7723 59.5569 13.5046 59.2932 12.5725 58.5022C11.864 57.8994 11.4166 57.033 11.342 56.0913C11.2675 55.1495 11.5285 54.2454 12.1623 53.5297C12.5725 53.04 13.0945 52.6633 13.7283 52.4749C14.8842 52.0605 16.1519 52.3242 17.084 53.1153C17.7925 53.718 18.2399 54.5844 18.3145 55.5262C18.389 56.468 18.0908 57.3721 17.4942 58.0878Z" fill="#56FF14"/>
<path d="M188.375 46.8243C187.554 45.7319 186.548 44.7901 185.392 44.1121C185.392 44.1121 185.355 44.1121 185.355 44.0744C185.205 43.9991 185.094 43.9237 184.944 43.8484C184.907 43.8107 184.87 43.8107 184.795 43.773C184.683 43.6977 184.572 43.66 184.422 43.5847C184.348 43.547 184.311 43.5093 184.236 43.5093C184.124 43.4717 184.012 43.434 183.9 43.3587C183.826 43.321 183.751 43.2833 183.677 43.2833C183.565 43.2456 183.453 43.208 183.341 43.1703C183.267 43.1326 183.155 43.1326 183.08 43.095C182.968 43.0573 182.894 43.0196 182.782 43.0196C182.67 42.9819 182.595 42.982 182.484 42.9443C182.372 42.9066 182.297 42.9066 182.185 42.8689C182.073 42.8313 181.962 42.8313 181.85 42.8313C181.775 42.8313 181.663 42.7936 181.589 42.7936C181.44 42.7936 181.328 42.7559 181.179 42.7559C181.104 42.7559 181.029 42.7559 180.955 42.7183C180.731 42.7183 180.545 42.6806 180.321 42.6806C178.494 42.6806 176.704 43.1703 175.138 44.1497C174.877 44.3381 174.579 44.4888 174.355 44.6771C174.094 44.8655 173.871 45.0915 173.61 45.2798C173.386 45.5059 173.162 45.7319 172.938 45.9579C172.715 46.1839 172.528 46.4476 172.342 46.7113C171.559 47.7661 171 49.0092 170.664 50.3277C170.03 52.9269 170.44 55.6392 171.82 57.9371C173.647 60.9507 176.816 62.7966 180.358 62.7966C182.185 62.7966 183.975 62.3069 185.541 61.3274C187.815 59.9336 189.419 57.7111 190.053 55.1118C190.686 52.5126 190.276 49.8003 188.897 47.5024C188.71 47.314 188.524 47.088 188.375 46.8243ZM185.355 54.0571C185.019 55.4132 184.199 56.5433 183.043 57.259C182.223 57.7488 181.328 58.0124 180.396 58.0124C178.569 58.0124 176.928 57.0707 175.996 55.5262C175.287 54.3584 175.064 52.9646 175.399 51.6085C175.735 50.2523 176.555 49.1222 177.711 48.4065C178.531 47.9168 179.426 47.6531 180.358 47.6531C182.185 47.6531 183.826 48.5948 184.758 50.1393C185.429 51.3071 185.653 52.7009 185.355 54.0571Z" fill="#56FF14"/>
<path d="M197.584 42.9443C197.622 42.7559 197.622 42.5676 197.622 42.3792C197.622 42.3792 197.622 40.5334 197.622 39.5539C197.622 38.5745 196.689 38.6122 196.205 38.4238C194.676 37.8588 193.893 36.1259 194.49 34.6191C194.862 33.602 195.72 32.9239 196.727 32.7356C196.988 32.6979 197.659 32.5472 197.025 31.6055C196.317 30.5507 195.273 29.722 193.968 29.4959L184.236 27.1227L171.41 13.26C171.111 12.9586 170.739 12.7703 170.328 12.7703H154.929C154.519 12.7703 154.184 12.921 153.923 13.1846C153.513 13.4483 153.252 13.9004 153.252 14.4278V34.9582C153.252 35.0335 153.252 35.1088 153.289 35.2218L153.326 46.3346V50.3277C153.326 51.7215 154.445 52.8516 155.824 52.8516H168.166C168.166 51.8722 168.278 50.8927 168.501 49.9133C168.762 48.8209 169.173 47.7661 169.695 46.8243C170.067 46.1463 170.515 45.5059 171 44.9031C171 44.9031 171 44.9031 171.037 44.8655C171.186 44.6771 171.372 44.4888 171.559 44.3004L171.596 44.2627C171.745 44.1121 171.894 43.9614 172.081 43.8107C172.118 43.773 172.155 43.7354 172.193 43.7354C172.379 43.5847 172.528 43.434 172.715 43.2833C172.752 43.2456 172.789 43.208 172.827 43.1703C173.199 42.8689 173.61 42.5676 174.057 42.3039C175.959 41.1361 178.158 40.4957 180.396 40.4957C183.117 40.4957 185.653 41.3621 187.741 42.9443C187.741 42.9443 187.741 42.9443 187.778 42.9443C187.927 43.0573 188.076 43.1703 188.226 43.321C188.3 43.3963 188.375 43.4717 188.449 43.5093C188.561 43.5847 188.636 43.6977 188.748 43.773C188.822 43.8484 188.897 43.9237 188.971 43.9991C189.083 44.1121 189.195 44.2251 189.307 44.3381C189.344 44.3758 189.381 44.4134 189.456 44.4888C189.605 44.6394 189.754 44.8278 189.903 45.0162C189.941 45.0915 190.015 45.1292 190.053 45.2045C190.164 45.3552 190.276 45.4682 190.351 45.6189C190.388 45.6942 190.425 45.7319 190.463 45.8072C190.612 45.9956 190.724 46.2216 190.873 46.41C192.066 48.3688 192.663 50.5914 192.663 52.8139H197.472C198.852 52.8139 199.971 51.6838 199.971 50.29V45.4682C199.971 44.1121 198.927 43.0196 197.584 42.9443ZM164.922 27.8008V21.5098C164.922 20.6057 164.214 19.89 163.319 19.89H161.417C160.522 19.89 159.814 20.6057 159.814 21.5098V27.8008H157.092V15.8216H169.657L180.731 27.8008H164.922Z" fill="#56FF14"/>
</svg>
