<svg width="80" height="80" viewBox="0 0 100 100" fill="none" xmlns="http://www.w3.org/2000/svg">
<g clip-path="url(#clip0)">
<path d="M50.0792 -0.000206524C77.6982 0.039476 100.02 22.4204 99.9998 50.0593C99.9601 77.718 77.5395 100.039 49.8609 99.9998C22.2419 99.9403 -0.039889 77.5395 -0.000206477 49.8807C0.0394761 22.2617 22.4403 -0.0398891 50.0792 -0.000206524ZM49.4641 79.8014C56.2696 79.5434 61.9442 77.4601 67.0434 73.8887C68.9284 72.5593 70.5553 70.8133 72.1823 69.1268C73.095 68.1744 72.8173 66.6665 71.8252 65.853C70.8331 65.0395 69.3847 65.1387 68.5315 66.1903C66.1307 69.1863 62.9958 71.1704 59.5633 72.6982C54.9998 74.722 50.2776 75.7141 45.3172 74.3649C39.9799 72.9165 35.1982 70.5752 31.5474 66.2696C30.6546 65.2379 29.2855 65.1387 28.2736 65.972C27.3014 66.7657 27.1228 68.095 27.8569 69.1665C28.1347 69.5831 28.4522 69.9601 28.7895 70.3173C34.603 76.2696 41.7657 79.1863 49.4641 79.8014ZM39.2855 38.0752C39.2855 35.4958 37.0831 33.3133 34.5434 33.3331C31.9244 33.3331 29.7419 35.5553 29.7617 38.1546C29.8014 40.7141 32.0038 42.8768 34.5633 42.8569C37.1228 42.8172 39.2855 40.6347 39.2855 38.0752ZM70.2379 38.1149C70.2577 35.5553 68.1347 33.3728 65.5553 33.3133C62.976 33.2538 60.7339 35.4363 60.7141 38.0355C60.6942 40.6347 62.8966 42.8371 65.4958 42.8371C68.0554 42.8371 70.218 40.6942 70.2379 38.1149Z" fill="#56FF14"/>
</g>
<defs>
<clipPath id="clip0">
<rect width="100" height="100" fill="white"/>
</clipPath>
</defs>
</svg>
