<svg width="200" height="90" viewBox="0 0 200 90" fill="none" xmlns="http://www.w3.org/2000/svg">
<path d="M23.1726 65.6835C20.7902 65.6835 18.8705 67.1345 18.8705 68.9229C18.8705 70.7113 20.7902 72.1623 23.1726 72.1623V65.6835Z" fill="#24A54A"/>
<path d="M25.1849 72.2466C25.1849 72.8034 24.676 73.242 24.0747 73.242H23.5195C22.895 73.242 22.4093 72.8034 22.4093 72.2466V65.5992C22.4093 65.0424 22.9182 64.6038 23.5195 64.6038H24.0747C24.6992 64.6038 25.1849 65.0424 25.1849 65.5992V72.2466Z" fill="#24A54A"/>
<path d="M21.1834 67.2526C20.6977 66.9152 20.3276 67.3201 20.1195 67.7419C19.865 68.1131 19.7957 68.518 19.9576 68.9398C20.3045 69.7665 20.8828 69.5809 21.0909 68.8554C21.2066 68.518 21.5535 67.5226 21.1834 67.2526Z" fill="#24A54A"/>
<path d="M44.8683 33.2393L24.4447 52.0175V73.3939H80.1643L80.3031 64.8568L80.3493 62.8322L80.8582 33.3574L44.8683 33.2393ZM46.0711 34.859H59.3244V48.7613L56.3407 52.3043H27.2203L46.0711 34.859Z" fill="#24A54A"/>
<path d="M5.98719 44.9314C5.98719 44.9314 6.58857 47.3103 6.24162 47.8502C5.87155 48.3901 3.28101 48.7444 2.70277 50.7352C2.19391 52.5236 3.25788 54.7844 7.76818 54.8857C11.6077 54.9532 13.2268 53.9577 13.7588 51.8488C14.0595 50.6509 12.7411 49.7736 12.3479 49.7567C11.9084 49.7398 12.4404 51.4101 11.0295 52.0681C9.61857 52.7261 6.17223 52.7261 6.1491 51.5113C6.12597 50.2966 8.90154 50.5497 9.13284 49.065C9.36414 47.5802 9.04032 45.2182 9.04032 45.2182L5.98719 44.9314Z" fill="#24A54A"/>
<path d="M4.57628 40.3423V44.8639L7.35185 47.749L10.4281 44.8639V40.3423H4.57628Z" fill="#24A54A"/>
<path d="M19.68 7.72938L114.396 26.0689L114.836 25.3603L19.68 7.71251V7.72938Z" fill="#24A54A"/>
<path d="M19.1943 8.50548L19.68 7.72938L17.0432 7.22323L19.1943 8.50548Z" fill="#24A54A"/>
<path d="M21.3454 4.99617L18.3616 4.59125L17.0432 7.22323L19.68 7.71251L21.3454 4.99617Z" fill="#24A54A"/>
<path d="M119.809 23.3694L116.617 22.4246L114.836 25.3603L118.675 26.0689L119.809 23.3694Z" fill="#24A54A"/>
<path d="M8.06985 2.82168L7.80517 3.6082L155.459 30.0461L155.723 29.2596L8.06985 2.82168Z" fill="#24A54A"/>
<path d="M6.88957 9.54905L6.72155 44.7096L7.83178 44.7124L7.99979 9.55187L6.88957 9.54905Z" fill="#24A54A"/>
<path d="M114.074 39.4029L112.523 40.7441L125.554 48.7618L127.105 47.4206L114.074 39.4029Z" fill="#24A54A"/>
<path d="M104.679 31.2827L100.883 34.237L114.755 43.7203L118.551 40.766L104.679 31.2827Z" fill="#24A54A"/>
<path d="M125.195 44.0875L121.399 47.0418L135.271 56.5251L139.067 53.5708L125.195 44.0875Z" fill="#24A54A"/>
<path d="M6.3804 14.4443L139.654 44.0878L144.766 30.2362L10.6363 6.07596L6.3804 14.4443Z" fill="#24A54A"/>
<path d="M178.049 61.938C178.049 62.4273 177.726 62.8322 177.332 62.8322H135.236C134.843 62.8322 134.519 62.4273 134.519 61.938V54.1771C134.519 53.6878 134.843 53.2829 135.236 53.2829H177.332C177.726 53.2829 178.049 53.6878 178.049 54.1771V61.938Z" fill="#24A54A"/>
<path d="M40.1961 73.9169V81.5598H24.4447C24.4447 81.5598 20.9753 81.1211 21.3685 77.7468C21.8311 73.9338 24.4447 73.9338 24.4447 73.9338H40.1961V73.9169Z" fill="#24A54A"/>
<path d="M37.7675 73.9169V80.6656H22.4324C23.3345 81.4079 24.4447 81.5598 24.4447 81.5598H40.1961V73.9169H37.7675Z" fill="#24A54A"/>
<path d="M197.617 62.8322H80.1874V73.3939H197.617V62.8322Z" fill="#24A54A"/>
<path d="M191.904 77.6287C191.904 77.5781 191.904 77.5443 191.904 77.4937C191.904 77.2912 191.881 77.1057 191.858 76.9032C191.858 76.8695 191.858 76.8357 191.835 76.802C191.835 76.7851 191.835 76.7682 191.835 76.7514C191.835 76.6839 191.812 76.6164 191.812 76.5489C191.812 76.532 191.812 76.5152 191.812 76.4983C191.812 76.4645 191.812 76.4308 191.788 76.397C191.765 76.2958 191.742 76.2115 191.742 76.1102C191.719 76.009 191.696 75.9246 191.673 75.8234C191.673 75.8065 191.673 75.8065 191.673 75.7897C191.673 75.7728 191.673 75.7391 191.65 75.7222C191.65 75.7053 191.65 75.6884 191.627 75.6716C191.603 75.5872 191.58 75.5197 191.557 75.4354C191.557 75.4185 191.557 75.4185 191.557 75.4016C191.511 75.2835 191.488 75.1654 191.442 75.0473C191.395 74.9292 191.349 74.8111 191.303 74.693C191.256 74.5918 191.21 74.4906 191.164 74.3893C191.095 74.2375 191.025 74.0856 190.956 73.9338C190.91 73.8494 190.863 73.7651 190.817 73.6807C190.771 73.5795 190.701 73.4783 190.655 73.377C190.655 73.377 190.655 73.3601 190.632 73.3433C190.586 73.242 190.516 73.1577 190.47 73.0565C190.331 72.8203 190.169 72.6009 190.007 72.3816C189.846 72.1791 189.684 71.9767 189.522 71.7742C189.429 71.673 189.36 71.5718 189.267 71.4705C189.175 71.3693 189.082 71.2849 188.99 71.1837C188.805 70.9981 188.62 70.7957 188.412 70.6269C188.319 70.5426 188.203 70.4414 188.111 70.357C187.903 70.1883 187.695 70.0027 187.486 69.834C187.371 69.7496 187.255 69.6653 187.139 69.5809C187.024 69.4965 186.908 69.4122 186.792 69.3447C186.561 69.1929 186.33 69.0241 186.075 68.8892C185.983 68.8385 185.867 68.7711 185.775 68.7204C185.705 68.6867 185.659 68.653 185.59 68.6192C185.382 68.5011 185.15 68.383 184.919 68.2649C182.328 66.9658 179.183 66.2066 175.806 66.2066C169.121 66.2066 163.408 69.1591 160.957 73.377C160.147 74.7774 159.684 76.3296 159.684 77.9661C159.684 81.138 161.419 84.023 164.218 86.132C164.287 86.1826 164.333 86.2332 164.403 86.267C164.472 86.3176 164.519 86.3513 164.588 86.4019C164.704 86.4863 164.819 86.5538 164.935 86.6381C165.004 86.6888 165.074 86.7225 165.12 86.7731C165.189 86.8237 165.259 86.8575 165.305 86.8912C165.444 86.9756 165.582 87.0599 165.698 87.1274C165.814 87.1949 165.929 87.2624 166.045 87.3299C166.091 87.3468 166.138 87.3805 166.184 87.3974C166.3 87.4649 166.415 87.5323 166.531 87.583C166.623 87.6336 166.716 87.6842 166.808 87.7179C166.901 87.7517 166.97 87.8023 167.063 87.836C167.155 87.8866 167.248 87.9204 167.34 87.9541C167.41 87.9879 167.456 88.0048 167.525 88.0385C167.618 88.0891 167.71 88.1229 167.826 88.1566C167.895 88.1903 167.942 88.2072 168.011 88.241C168.15 88.2916 168.289 88.3422 168.427 88.3928C168.474 88.4097 168.497 88.4265 168.543 88.4265C168.682 88.4772 168.821 88.5278 168.959 88.5784C169.26 88.6796 169.538 88.764 169.838 88.8483C170.208 88.9664 170.602 89.0508 170.995 89.152C171.087 89.1689 171.203 89.2026 171.296 89.2195C171.434 89.2533 171.55 89.2701 171.689 89.3039C171.828 89.3376 171.989 89.3545 172.151 89.3882C172.174 89.3882 172.198 89.4051 172.221 89.4051C172.336 89.422 172.452 89.4388 172.568 89.4557C172.822 89.4895 173.1 89.5232 173.377 89.5569C173.516 89.5738 173.655 89.5907 173.794 89.5907C173.794 89.5907 173.817 89.5907 173.84 89.5907C173.909 89.5907 173.955 89.6076 174.002 89.6076C174.14 89.6244 174.302 89.6244 174.441 89.6413C174.58 89.6413 174.719 89.6582 174.858 89.6582C174.973 89.6582 175.066 89.6582 175.181 89.675C175.274 89.675 175.366 89.675 175.459 89.675C175.575 89.675 175.713 89.675 175.852 89.675C184.757 89.675 191.974 84.4111 191.974 77.9155C191.904 77.8649 191.904 77.7468 191.904 77.6287ZM183.601 77.7468C183.601 80.8343 180.154 83.3482 175.921 83.3482C171.689 83.3482 168.242 80.8343 168.242 77.7468C168.242 75.9921 169.353 74.4062 171.11 73.377H180.756C182.49 74.4062 183.601 75.9921 183.601 77.7468Z" fill="#24A54A"/>
<path d="M184.919 68.2649C187.718 70.3739 189.452 73.2589 189.452 76.4308C189.452 82.9264 182.236 88.1903 173.331 88.1903C169.954 88.1903 166.808 87.4311 164.218 86.132C167.155 88.3422 171.249 89.7257 175.806 89.7257C184.711 89.7257 191.927 84.4617 191.927 77.9661C191.904 73.9507 189.152 70.3907 184.919 68.2649Z" fill="#24A54A"/>
<path d="M181.426 73.3939C179.969 72.4153 178.049 71.8248 175.921 71.8248C173.794 71.8248 171.851 72.4153 170.417 73.3939C168.798 74.4737 167.803 76.0259 167.803 77.7637C167.803 81.0368 171.457 83.7025 175.945 83.7025C180.432 83.7025 184.086 81.0536 184.086 77.7637C184.04 76.0259 183.045 74.4737 181.426 73.3939ZM175.921 83.365C171.689 83.365 168.242 80.8512 168.242 77.7637C168.242 76.009 169.353 74.4231 171.11 73.3939H180.756C182.513 74.4231 183.624 75.9921 183.624 77.7637C183.601 80.8343 180.154 83.365 175.921 83.365Z" fill="#24A54A"/>
<path d="M182.074 73.3939C180.501 72.2297 178.327 71.4874 175.921 71.4874C173.516 71.4874 171.342 72.2129 169.769 73.3939C168.266 74.5243 167.34 76.0596 167.34 77.7637C167.34 81.2223 171.18 84.023 175.921 84.023C180.663 84.023 184.503 81.2055 184.503 77.7637C184.503 76.0596 183.577 74.5074 182.074 73.3939ZM175.921 83.365C171.689 83.365 168.242 80.8512 168.242 77.7637C168.242 76.009 169.353 74.4231 171.11 73.3939C172.429 72.6178 174.117 72.1454 175.921 72.1454C177.726 72.1454 179.414 72.6178 180.732 73.3939C182.49 74.4231 183.601 75.9921 183.601 77.7637C183.601 80.8343 180.154 83.365 175.921 83.365Z" fill="#24A54A"/>
<path d="M174.58 73.3939C175.135 73.3095 175.76 73.2589 176.222 73.3939H174.58Z" fill="#24A54A"/>
<path d="M172.938 67.5563C170.856 67.8769 168.011 68.6867 165.236 70.88C164.704 71.3018 163.686 72.4153 163.593 73.0902C163.015 73.9169 162.599 74.8111 162.344 75.7897C162.159 76.532 162.02 78.8941 163.894 78.3204C165.097 77.9492 164.727 76.667 164.981 75.8572C165.744 73.4108 167.849 70.6101 171.041 69.6146C171.966 69.3278 174.302 68.8385 174.464 68.518C174.858 67.86 173.562 67.4551 172.938 67.5563Z" fill="#24A54A"/>
<path d="M199.005 62.8322H80.1874V64.8568H199.005V62.8322Z" fill="#24A54A"/>
<path d="M183.948 53.3166H131.443L131.235 35.9894L153.948 16.4014H175.366L176.361 34.8421H183.485L183.948 53.3166Z" fill="#24A54A"/>
<path d="M176.199 16.4014H172.73V53.2997H176.199V16.4014Z" fill="#24A54A"/>
<path d="M183.948 34.8421H182.074V53.3166H183.948V34.8421Z" fill="#24A54A"/>
<path d="M183.924 52.3043H131.443V53.3166H183.924V52.3043Z" fill="#24A54A"/>
<path d="M10.6363 6.07596L9.61856 8.06682L136.185 31.704L139.076 29.207L10.6363 6.07596Z" fill="#24A54A"/>
<path d="M9.94238 15.7097C9.71108 16.199 9.20223 16.5195 8.78589 16.4183L0.412924 14.3093C0.019718 14.2081 -0.11906 13.7188 0.112237 13.2295L5.68651 1.45312C5.91781 0.963846 6.42666 0.643284 6.843 0.744514L15.216 2.85347C15.6092 2.9547 15.7479 3.44398 15.5167 3.93326L9.94238 15.7097Z" fill="#24A54A"/>
<path d="M7.35185 12.4534C9.54901 12.4534 11.3302 11.1542 11.3302 9.55152C11.3302 7.94883 9.54901 6.6496 7.35185 6.6496C5.15468 6.6496 3.37353 7.94883 3.37353 9.55152C3.37353 11.1542 5.15468 12.4534 7.35185 12.4534Z" fill="#24A54A"/>
<path d="M46.0479 12.4534L42.2546 22.4246L44.9146 23.0151L49.8643 13.1452L46.0479 12.4534Z" fill="#24A54A"/>
<path d="M54.0971 13.9044L50.9514 24.2467L53.542 25.0735L57.1965 14.4612L54.0971 13.9044Z" fill="#24A54A"/>
<path d="M80.5113 53.8228H77.3887V73.3939H80.5113V53.8228Z" fill="#24A54A"/>
<path d="M157.695 53.1816C157.418 53.1816 157.186 53.0129 157.186 52.8105C157.186 52.5743 157.071 47.1416 161.905 44.4927C164.125 43.278 164.495 37.7103 164.472 35.6689C164.472 35.4664 164.704 35.2977 164.981 35.2977C165.259 35.2977 165.49 35.4664 165.49 35.6689C165.49 35.6857 165.513 37.5922 165.189 39.6843C164.727 42.5525 163.848 44.3746 162.506 45.1001C158.088 47.5296 158.181 52.7599 158.181 52.8105C158.204 53.0129 157.996 53.1816 157.695 53.1816Z" fill="#24A54A"/>
<path d="M53.542 70.1883C53.2644 70.1883 53.0331 70.0196 53.0331 69.8171C53.0331 69.5809 52.9175 64.1482 57.7516 61.4994C59.972 60.2846 60.3421 54.717 60.319 52.6755C60.319 52.473 60.5503 52.3043 60.8278 52.3043C61.1054 52.3043 61.3367 52.473 61.3367 52.6755C61.3367 52.6924 61.3598 54.5989 61.036 56.6909C60.5734 59.5591 59.6945 61.3813 58.353 62.1067C53.9352 64.5363 54.0277 69.7665 54.0277 69.8171C54.0508 70.0027 53.8427 70.1883 53.542 70.1883Z" fill="#24A54A"/>
<path d="M131.235 35.9894H165.768V16.4352L153.948 16.4014L131.235 35.9894Z" fill="#24A54A"/>
<path d="M154.804 17.7343L134.519 34.859H163.547V17.7343H154.804Z" fill="#24A54A"/>
<path d="M163.131 37.491H158.597V38.2333H163.131V37.491Z" fill="#24A54A"/>
<path d="M56.3175 55.7799H51.7841V56.5222H56.3175V55.7799Z" fill="#24A54A"/>
<path d="M44.8683 33.2393L24.4447 52.0175V53.8228H80.5113L80.8582 33.3406L44.8683 33.2393ZM59.3244 48.7613L56.3407 52.3043H27.2203L46.0479 34.8759H59.3013V48.7613H59.3244Z" fill="#24A54A"/>
<path d="M59.3244 48.7613L59.3244 52.3043H56.3407L59.3244 48.7613Z" fill="#24A54A"/>
<path d="M62.2388 34.8421L62.9558 52.3043H77.3887V34.8421H62.2388Z" fill="#24A54A"/>
<path d="M74.3125 77.6287C74.3125 77.5781 74.3125 77.5443 74.3125 77.4937C74.3125 77.2912 74.2893 77.1057 74.2662 76.9032C74.2662 76.8695 74.2662 76.8357 74.2431 76.802C74.2431 76.7851 74.2431 76.7682 74.2431 76.7514C74.2431 76.7007 74.22 76.6333 74.22 76.5826C74.22 76.5489 74.22 76.532 74.1968 76.4983C74.1968 76.4645 74.1968 76.4308 74.1737 76.397C74.1506 76.2958 74.1506 76.2115 74.1274 76.1102C74.1043 76.009 74.0812 75.9246 74.0581 75.8234C74.0581 75.8065 74.0581 75.7897 74.0581 75.7897C74.0581 75.7728 74.0581 75.7391 74.0349 75.7222C74.0349 75.6884 74.0349 75.6716 74.0118 75.6378C73.9887 75.5703 73.9655 75.5028 73.9655 75.4354C73.9655 75.4185 73.9655 75.4185 73.9655 75.4016C73.9193 75.2835 73.8961 75.1654 73.8499 75.0473C73.8036 74.9292 73.7574 74.8111 73.7111 74.693C73.6648 74.5918 73.6186 74.4906 73.5955 74.3893C73.5955 74.3556 73.5723 74.3387 73.5492 74.305C73.5261 74.2375 73.4798 74.17 73.4567 74.0856C73.4335 74.035 73.4104 74.0013 73.3873 73.9507C73.341 73.8663 73.2948 73.7819 73.2485 73.6976C73.2023 73.5964 73.1329 73.4951 73.0866 73.3939C73.0866 73.3939 73.0866 73.377 73.0635 73.3601C73.0172 73.2589 72.9478 73.1746 72.9016 73.0733C72.7628 72.8371 72.6009 72.6178 72.439 72.3985C72.2771 72.196 72.1383 71.9935 71.9532 71.7911C71.8607 71.6899 71.7913 71.5886 71.6988 71.4874C71.6063 71.3862 71.5138 71.3018 71.4213 71.2006C71.2362 71.015 71.0512 70.8125 70.843 70.6438C70.7505 70.5595 70.6348 70.4582 70.5423 70.3739C70.3342 70.2051 70.126 70.0196 69.9178 69.8508C69.6865 69.6821 69.4784 69.5134 69.2471 69.3616C69.0158 69.2097 68.7845 69.041 68.53 68.906C68.4375 68.8554 68.345 68.8048 68.2525 68.7373C68.1831 68.7036 68.1368 68.6698 68.0674 68.6361C67.8361 68.5011 67.6048 68.383 67.3735 68.2649C64.783 66.9658 61.6374 66.2066 58.2604 66.2066C57.0577 66.2066 55.8781 66.3078 54.7447 66.4934C54.3515 66.5609 53.9814 66.6284 53.6114 66.7127C49.0085 67.725 45.2615 70.1883 43.4111 73.3939C42.6016 74.7942 42.139 76.3464 42.139 77.983C42.139 81.1549 43.8737 84.0399 46.6724 86.1489C46.7418 86.1995 46.8112 86.2501 46.8575 86.2838C46.9269 86.3345 46.9731 86.3682 47.0425 86.4188C47.1813 86.52 47.3432 86.6213 47.482 86.7225C47.5051 86.7394 47.5514 86.7731 47.5745 86.79C47.5976 86.8069 47.6207 86.8237 47.6439 86.8237C47.7364 86.8743 47.8058 86.925 47.8983 86.9756C48.014 87.0431 48.1065 87.1106 48.2221 87.1612C48.3609 87.2287 48.4765 87.313 48.6153 87.3805C48.7078 87.4311 48.8004 87.4817 48.8698 87.5155C48.9854 87.5661 49.1011 87.6336 49.2167 87.6842C49.4017 87.7854 49.6099 87.8698 49.7949 87.9541C49.8643 87.9879 49.9569 88.0216 50.0262 88.0554C50.2575 88.1566 50.4888 88.2578 50.7433 88.3422C50.7895 88.3591 50.8127 88.3759 50.8589 88.3759C50.9977 88.4265 51.1365 88.4772 51.2752 88.5278C51.3215 88.5446 51.3678 88.5615 51.3909 88.5784C51.4603 88.6121 51.5297 88.629 51.6222 88.6627C51.9229 88.764 52.2236 88.8483 52.5243 88.9327C52.6168 88.9496 52.6862 88.9833 52.7787 89.0002C52.8712 89.0339 52.9868 89.0508 53.0794 89.0845C53.2875 89.1352 53.4957 89.1858 53.7039 89.2364C53.7964 89.2533 53.8658 89.2701 53.9583 89.287C53.9814 89.287 54.0277 89.3039 54.0508 89.3039C54.1433 89.3207 54.2127 89.3376 54.3052 89.3545C54.3284 89.3545 54.3515 89.3545 54.3515 89.3545C54.444 89.3714 54.5597 89.3882 54.6522 89.4051C54.8604 89.4388 55.0917 89.4726 55.2998 89.5063C55.3692 89.5232 55.4386 89.5232 55.5311 89.5401C55.6468 89.5569 55.7393 89.5738 55.8549 89.5738C55.9706 89.5907 56.0862 89.6076 56.225 89.6076C56.4563 89.6244 56.7107 89.6413 56.942 89.6582H56.9652C57.0808 89.6582 57.1965 89.675 57.3121 89.675C57.4278 89.675 57.5203 89.675 57.6359 89.6919C57.7284 89.6919 57.821 89.6919 57.9135 89.6919C58.0291 89.6919 58.1679 89.6919 58.3067 89.6919C67.2116 89.6919 74.4281 84.428 74.4281 77.9324C74.3125 77.8649 74.3125 77.7468 74.3125 77.6287ZM66.0089 77.7468C66.0089 80.8343 62.5626 83.3482 58.3298 83.3482C54.0971 83.3482 50.6507 80.8343 50.6507 77.7468C50.6507 75.9921 51.761 74.4062 53.5188 73.377H63.1408C64.8755 74.4062 66.0089 75.9921 66.0089 77.7468Z" fill="#24A54A"/>
<path d="M67.3042 68.2649C70.1029 70.3739 71.8376 73.2589 71.8376 76.4308C71.8376 82.9264 64.6211 88.1903 55.7162 88.1903C52.3392 88.1903 49.1936 87.4311 46.603 86.132C49.5405 88.3422 53.6345 89.7257 58.191 89.7257C67.096 89.7257 74.3125 84.4617 74.3125 77.9661C74.3125 73.9507 71.5369 70.3907 67.3042 68.2649Z" fill="#24A54A"/>
<path d="M63.8116 73.3939C62.3544 72.4153 60.4346 71.8248 58.3067 71.8248C56.1788 71.8248 54.2359 72.4153 52.8018 73.3939C51.1827 74.4737 50.1881 76.0259 50.1881 77.7637C50.1881 81.0368 53.8426 83.7025 58.3298 83.7025C62.817 83.7025 66.4715 81.0536 66.4715 77.7637C66.4484 76.0259 65.4307 74.4737 63.8116 73.3939ZM58.3067 83.365C54.0739 83.365 50.6276 80.8512 50.6276 77.7637C50.6276 76.009 51.7378 74.4231 53.4957 73.3939H63.1408C64.8987 74.4231 66.0089 75.9921 66.0089 77.7637C66.0089 80.8343 62.5394 83.365 58.3067 83.365Z" fill="#24A54A"/>
<path d="M64.4592 73.3939C62.8864 72.2297 60.7122 71.4874 58.3067 71.4874C55.9012 71.4874 53.727 72.2129 52.1542 73.3939C50.6507 74.5243 49.7256 76.0596 49.7256 77.7637C49.7256 81.2223 53.5651 84.023 58.3067 84.023C63.0483 84.023 66.8878 81.2055 66.8878 77.7637C66.8878 76.0596 65.9626 74.5074 64.4592 73.3939ZM58.3067 83.365C54.0739 83.365 50.6276 80.8512 50.6276 77.7637C50.6276 76.009 51.7378 74.4231 53.4957 73.3939C54.8141 72.6178 56.5026 72.1454 58.3067 72.1454C60.1108 72.1454 61.7993 72.6178 63.1177 73.3939C64.8755 74.4231 65.9858 75.9921 65.9858 77.7637C66.0089 80.8343 62.5394 83.365 58.3067 83.365Z" fill="#24A54A"/>
<path d="M56.9652 73.3939C57.5203 73.3095 58.1448 73.2589 58.6074 73.3939H56.9652Z" fill="#24A54A"/>
<path d="M55.323 67.5563C53.2413 67.8769 50.3963 68.6867 47.6207 70.88C47.0888 71.3018 46.0711 72.4153 45.9785 73.0902C45.4003 73.9169 44.984 74.8111 44.7295 75.7897C44.5445 76.532 44.4057 78.8941 46.2792 78.3204C47.482 77.9492 47.1119 76.667 47.3663 75.8572C48.1296 73.4108 50.2344 70.6101 53.4263 69.6146C54.3515 69.3278 56.6876 68.8385 56.8495 68.518C57.2427 67.86 55.9706 67.4551 55.323 67.5563Z" fill="#24A54A"/>
<path d="M62.4469 39.7181L73.3642 34.859L77.3887 34.8421L62.632 44.7121L62.4469 39.7181Z" fill="#24A54A"/>
<path d="M65.847 52.3043L77.3887 42.8393V45.6063L71.6294 52.3043H65.847Z" fill="#24A54A"/>
<path d="M148.536 23.0151L160.864 17.7343H163.547V19.4889L141.597 28.8696L148.536 23.0151Z" fill="#24A54A"/>
<path d="M148.513 34.8421L163.547 27.6211V30.7423L157.695 34.859L148.513 34.8421Z" fill="#24A54A"/>
</svg>
