<svg width="200" height="86" viewBox="0 0 200 86" fill="none" xmlns="http://www.w3.org/2000/svg">
<path d="M12.0773 72.5915C9.25426 72.6648 7.12785 71.1984 4.89146 69.9518C3.9749 69.4386 2.94836 69.0353 1.95848 68.8886C0.71196 68.6687 0.0153779 68.2287 0.125365 66.9089C0.162027 66.4689 0.162027 66.0656 0.125365 65.6257C-0.0946088 63.8659 0.491987 62.766 2.65506 62.8027C2.65506 61.9961 2.65506 61.2629 2.65506 60.5663C2.6184 43.995 2.80171 27.4603 2.54507 10.889C2.47175 3.55652 7.78777 -0.0363845 13.4338 0.00027773C49.5461 0.146927 85.6584 0.0736022 121.771 0.0736022C128.627 0.0736022 132.439 3.84981 132.476 10.669C132.476 18.3681 132.476 26.0671 132.476 33.7662C132.476 34.4261 132.476 35.086 132.476 35.8926C135.226 35.8926 137.902 35.8926 140.762 35.8926C140.762 35.1594 140.762 34.4261 140.762 33.7295C140.762 26.0305 140.762 18.3314 140.762 10.6323C140.762 3.84981 144.575 0.0736022 151.284 0.0736022C163.016 0.0736022 174.748 0.0736022 186.48 0.0736022C192.859 0.0736022 196.708 3.92314 196.745 10.339C196.745 27.4603 196.745 44.5449 196.745 61.6662C196.745 62.3994 196.745 63.1327 196.745 63.8292C198.651 64.6725 199.715 67.2755 198.688 69.0353C198.395 69.5852 197.405 70.0252 196.745 69.9885C194.949 69.9152 193.482 70.5384 191.906 71.3083C190.329 72.0782 188.533 72.4082 186.553 72.9948C186.296 66.6889 183.987 61.8861 179.257 58.4032C175.884 55.9102 172.071 54.7737 167.892 55.067C159.239 55.6902 151.907 62.2894 151.394 72.4449C145.748 72.4449 140.102 72.4449 134.236 72.4449C133.869 66.3956 131.45 61.3729 126.243 57.9266C122.981 55.7635 119.351 54.7737 115.465 55.067C106.409 55.7635 100.727 61.7762 98.9668 72.4815C81.8455 72.4815 64.6876 72.4815 47.383 72.4815C47.053 66.7989 44.89 61.9961 40.2339 58.5132C37.0076 56.0935 33.3047 54.9203 29.2718 55.0303C20.2896 55.2503 14.7903 60.8229 12.0773 72.5915ZM168.038 21.8143C168.038 24.3073 168.002 26.837 168.038 29.3301C168.075 33.1796 170.898 35.9659 174.748 36.0393C176.764 36.0759 178.78 36.0759 180.797 36.0393C184.976 36.0026 187.799 33.2163 187.836 29.0001C187.873 24.1607 187.873 19.3579 187.836 14.5185C187.799 10.4857 185.123 7.69935 181.164 7.47937C178.964 7.36939 176.764 7.33273 174.564 7.47937C170.641 7.73601 168.075 10.5223 168.038 14.4452C168.002 16.9016 168.038 19.3579 168.038 21.8143Z" fill="#24A54A"/>
<path d="M116.748 60.493C123.457 60.5296 128.81 65.8823 128.81 72.5915C128.81 79.2274 123.311 84.6901 116.638 84.6901C109.892 84.6534 104.576 79.1907 104.613 72.3349C104.686 65.7357 110.075 60.493 116.748 60.493Z" fill="#24A54A"/>
<path d="M29.7851 60.493C36.531 60.4563 41.9203 65.809 41.9203 72.5182C41.9203 79.2274 36.531 84.6901 29.8951 84.6901C23.2226 84.7267 17.7599 79.3007 17.7599 72.6282C17.7599 65.8457 23.0393 60.5296 29.7851 60.493Z" fill="#24A54A"/>
<path d="M169.102 60.493C175.774 60.5296 181.237 65.9923 181.164 72.6282C181.09 79.264 175.554 84.7267 168.955 84.6901C162.319 84.6534 156.856 79.1174 156.93 72.4815C156.966 65.7357 162.319 60.4563 169.102 60.493Z" fill="#24A54A"/>
</svg>
