<svg width="200" height="82" viewBox="0 0 200 82" fill="none" xmlns="http://www.w3.org/2000/svg">
<path d="M8.00419 32.2783L11.1954 32.6968C10.9338 31.1797 10.9861 29.5579 11.4047 27.9885C12.1371 25.0065 14.0204 22.5477 16.6361 20.9783C18.4672 19.8797 20.5598 19.3565 22.6524 19.3565C26.6806 19.4088 30.3427 21.5014 32.3829 24.9542C33.9524 27.57 34.3709 30.6566 33.6385 33.6385C33.5862 33.9001 33.4816 34.1093 33.4292 34.3709C45.1478 34.5279 65.5506 34.7371 81.7682 34.9464C81.1405 32.9584 81.0358 30.7612 81.6113 28.6686C82.3437 25.6866 84.227 23.2278 86.8428 21.6584C88.6738 20.5598 90.7141 20.0366 92.8067 20.0366C96.8349 20.0889 100.497 22.1815 102.537 25.6343C104.107 28.2501 104.525 31.3366 103.793 34.3186C103.741 34.6325 103.636 34.8941 103.531 35.208C104.735 35.208 105.624 35.208 105.99 35.2603C111.065 35.3126 112.948 25.2681 108.972 20.0366C104.996 14.7528 86.6858 13.3926 84.6979 13.3926C84.6979 13.3926 71.5668 0.993984 48.0774 0.732409C30.9704 0.523149 17.7871 6.48705 11.9278 9.67826C9.73058 10.8815 8.47502 11.457 8.42271 15.0144C8.37039 18.5718 8.31807 20.4551 8.31807 20.4551C6.33011 20.4551 4.5514 22.0246 4.5514 24.0126L4.49908 28.6163C4.44677 30.6566 6.01622 32.2783 8.00419 32.2783ZM22.6524 10.1491C24.5357 7.32409 31.4936 3.1389 47.5543 3.29584C64.8182 3.45279 74.758 9.67826 78.734 13.0264C79.9895 14.0727 78.8909 14.7005 77.6877 14.7005C76.5368 14.7005 26.8899 12.3463 24.4834 12.294C22.1815 12.1894 21.8676 11.3 22.6524 10.1491Z" fill="#24A54A"/>
<path d="M92.8067 21.8153C91.028 21.8153 89.3016 22.2862 87.7845 23.1755C85.5872 24.4834 84.0178 26.6283 83.3377 29.0871C82.7099 31.5982 83.0761 34.214 84.384 36.4112C86.1104 39.3408 89.197 41.1195 92.5974 41.1195C94.3761 41.1195 96.1025 40.6487 97.6197 39.7594C99.8169 38.4515 101.439 36.3066 102.066 33.8478C102.694 31.3366 102.328 28.7209 101.02 26.5237C99.2938 23.6464 96.2072 21.8676 92.8067 21.8153ZM97.4627 32.6968C97.1488 33.9524 96.3641 35.051 95.2132 35.6788C94.4285 36.1496 93.5391 36.3589 92.6498 36.3589C90.9234 36.3589 89.3539 35.4695 88.4646 33.9524C87.7845 32.8538 87.6275 31.4936 87.9414 30.238C88.2553 28.9825 89.04 27.8839 90.1909 27.2561C90.9757 26.7852 91.865 26.576 92.7544 26.576C94.4808 26.576 96.0502 27.4653 96.9396 28.9825C97.6197 30.1334 97.7766 31.4413 97.4627 32.6968Z" fill="#24A54A"/>
<path d="M22.6524 21.1352C20.8737 21.1352 19.1473 21.6061 17.6301 22.4954C15.4329 23.8033 13.8635 25.9482 13.1834 28.407C12.5556 30.9181 12.9218 33.5339 14.2297 35.7311C15.9561 38.6607 19.0426 40.4394 22.4431 40.4394C24.2218 40.4394 25.9482 39.9686 27.4653 39.0793C29.6626 37.7714 31.2843 35.6265 31.9121 33.1677C32.5399 30.6566 32.1737 28.0408 30.8658 25.8436C29.1394 22.9663 26.0528 21.1876 22.6524 21.1352ZM27.3084 32.0167C26.9945 33.2723 26.2098 34.3709 25.0589 34.9987C24.2741 35.4695 23.3848 35.6788 22.4954 35.6788C20.769 35.6788 19.1996 34.7894 18.3102 33.2723C17.6301 32.1737 17.4732 30.8135 17.7871 29.5579C18.101 28.3024 18.8857 27.2038 20.0366 26.576C20.8213 26.1052 21.7107 25.8959 22.6001 25.8959C24.3264 25.8959 25.8959 26.7852 26.7852 28.3024C27.413 29.4533 27.6223 30.7612 27.3084 32.0167Z" fill="#24A54A"/>
<path d="M45.3047 53.6228C42.7413 53.6228 40.2302 54.3029 38.033 55.6631C34.8417 57.5987 32.5922 60.6853 31.7029 64.2951C30.8135 67.9048 31.389 71.6715 33.3246 74.8627C35.888 79.0479 40.3348 81.6113 45.3047 81.6113C47.8682 81.6113 50.3793 80.9312 52.5765 79.571C55.7677 77.6354 58.0173 74.5488 58.9066 70.9391C59.796 67.3293 59.2205 63.5626 57.2849 60.3714C54.6691 56.1339 50.2223 53.6228 45.3047 53.6228ZM52.2626 69.3173C51.7918 71.2006 50.6409 72.7701 49.0191 73.7641C47.8682 74.4442 46.6126 74.8104 45.3047 74.8104C42.7413 74.8104 40.4394 73.5025 39.1316 71.3576C38.1376 69.7358 37.8237 67.8002 38.2945 65.9168C38.7654 64.0335 39.9163 62.464 41.5381 61.4701C42.689 60.79 43.9445 60.4238 45.2524 60.4238C47.8159 60.4238 50.1177 61.7316 51.4256 63.8765C52.4196 65.4983 52.7335 67.434 52.2626 69.3173Z" fill="#24A54A"/>
<path d="M125.033 0H120.063C116.61 0 113.785 2.82501 113.785 6.27779V43.7876H7.16715V36.0973C7.16715 34.8417 6.17316 33.8478 4.9176 33.8478H2.24954C0.993984 33.9001 0 34.8941 0 36.0973V51.8441C0 53.7274 1.51713 55.1923 3.34816 55.1923H14.125C13.9681 55.5585 13.9158 55.9247 13.9158 56.3432V59.2205H7.84724C6.90557 59.2205 6.12085 60.0052 6.12085 60.9469C6.12085 61.8886 6.90557 62.6733 7.84724 62.6733H13.9681V64.1904C13.9681 66.0738 15.4852 67.5386 17.3162 67.5386H28.1454C28.1454 66.1784 28.3024 64.8182 28.6163 63.458C29.401 60.2145 31.0751 57.3372 33.4292 55.0876C33.6385 54.8784 33.8478 54.7214 34.057 54.5645L34.1093 54.5122C34.3186 54.3552 34.4755 54.1983 34.6848 54.0413C34.7371 53.989 34.7894 53.989 34.8417 53.9367C34.9987 53.8321 35.1556 53.6751 35.3649 53.5705C35.6265 53.3612 35.888 53.2043 36.2019 53.0473C36.2542 52.995 36.3066 52.9427 36.4112 52.9427C39.0793 51.321 42.1658 50.4316 45.3047 50.4316C48.5483 50.4316 51.6872 51.321 54.3552 52.995C56.6048 54.4075 58.5404 56.2909 60.0052 58.6974C61.6793 61.4177 62.5163 64.5043 62.5163 67.5909H128.015C129.898 67.5909 131.363 66.0738 131.363 64.2427V6.27779C131.31 2.82501 128.485 0 125.033 0Z" fill="#24A54A"/>
<path d="M183.573 59.2728C182.422 57.7034 181.01 56.4478 179.388 55.5061C179.388 55.5061 179.336 55.5061 179.336 55.4538C179.126 55.3492 178.969 55.2446 178.76 55.1399C178.708 55.0876 178.656 55.0876 178.551 55.0353C178.394 54.9307 178.185 54.8784 178.028 54.7737C177.923 54.7214 177.871 54.6691 177.766 54.6691C177.609 54.6168 177.452 54.5645 177.295 54.4598C177.191 54.4075 177.086 54.3552 176.981 54.3552C176.824 54.3029 176.668 54.2506 176.511 54.1983C176.406 54.146 176.249 54.146 176.144 54.0936C175.987 54.0413 175.883 53.989 175.726 53.989C175.569 53.9367 175.464 53.9367 175.307 53.8844C175.15 53.8321 175.046 53.8321 174.889 53.7798C174.732 53.7274 174.575 53.7274 174.418 53.7274C174.313 53.7274 174.156 53.6751 174.052 53.6751C173.843 53.6751 173.686 53.6228 173.476 53.6228C173.372 53.6228 173.267 53.6228 173.162 53.5705C172.849 53.5705 172.587 53.5182 172.273 53.5182C169.71 53.5182 167.199 54.1983 165.001 55.5585C164.635 55.7677 164.217 56.0293 163.903 56.2909C163.536 56.5524 163.223 56.8663 162.856 57.1279C162.543 57.4418 162.229 57.7557 161.915 58.0696C161.601 58.3835 161.339 58.7497 161.078 59.1159C159.979 60.5807 159.194 62.3071 158.724 64.1381C157.834 67.7478 158.41 71.5145 160.345 74.7057C162.909 78.8909 167.355 81.4544 172.325 81.4544C174.889 81.4544 177.4 80.7743 179.597 79.4141C182.788 77.4784 185.038 74.3918 185.927 70.7821C186.817 67.1724 186.241 63.4057 184.306 60.2145C184.044 59.9529 183.835 59.639 183.573 59.2728ZM179.336 69.3173C178.865 71.2006 177.714 72.7701 176.092 73.7641C174.941 74.4442 173.686 74.8104 172.378 74.8104C169.814 74.8104 167.512 73.5025 166.205 71.3576C165.211 69.7358 164.897 67.8002 165.368 65.9168C165.838 64.0335 166.989 62.464 168.611 61.4701C169.762 60.79 171.018 60.4238 172.325 60.4238C174.889 60.4238 177.191 61.7316 178.499 63.8765C179.493 65.4983 179.806 67.434 179.336 69.3173Z" fill="#24A54A"/>
<path d="M196.547 53.8844C196.6 53.6228 196.6 53.3612 196.6 53.0997C196.6 53.0997 196.6 51.4256 196.6 50.2223C196.6 49.0191 195.396 48.9668 194.769 48.7575C192.624 47.9728 191.525 45.5663 192.362 43.4737C192.937 42.0089 194.245 41.0149 195.71 40.8057C196.024 40.7533 196.809 40.5441 196.233 39.2362C195.396 37.2482 193.67 35.6265 191.473 35.2603L177.818 31.9644L159.822 12.7125C159.404 12.294 158.88 12.0324 158.305 12.0324H136.699C136.123 12.0324 135.653 12.2417 135.286 12.6079C134.711 12.9741 134.345 13.6019 134.345 14.3343V42.8459C134.345 42.9506 134.345 43.0552 134.397 43.2121L134.449 58.645V64.1904C134.449 66.1261 136.019 67.6955 137.954 67.6955H155.271C155.271 66.3353 155.428 64.9752 155.742 63.615C156.108 62.0978 156.683 60.633 157.416 59.3251C157.939 58.3835 158.567 57.4941 159.247 56.6571C159.247 56.6571 159.247 56.6571 159.299 56.6048C159.508 56.3432 159.77 56.0816 159.979 55.82L160.031 55.7677C160.241 55.5585 160.45 55.3492 160.711 55.1399C160.764 55.0876 160.816 55.0353 160.868 55.0353C161.13 54.8261 161.339 54.6168 161.601 54.4075C161.653 54.3552 161.705 54.3029 161.758 54.2506C162.281 53.8321 162.856 53.4136 163.484 53.0473C166.152 51.4256 169.239 50.5362 172.378 50.5362C176.197 50.5362 179.754 51.7395 182.684 53.9367C182.684 53.9367 182.684 53.9367 182.736 53.9367C182.945 54.0936 183.155 54.2506 183.364 54.4598C183.468 54.5645 183.573 54.6691 183.678 54.7214C183.835 54.8261 183.939 54.983 184.096 55.0876C184.201 55.1923 184.306 55.2969 184.41 55.4015C184.567 55.5585 184.724 55.7154 184.881 55.8724C184.933 55.9247 184.986 55.977 185.09 56.0816C185.3 56.2909 185.509 56.5524 185.718 56.814C185.77 56.9187 185.875 56.971 185.927 57.0756C186.084 57.2849 186.241 57.4418 186.346 57.6511C186.398 57.7557 186.45 57.808 186.503 57.9126C186.712 58.1742 186.869 58.4881 187.078 58.7497C188.752 61.4701 189.589 64.5566 189.589 67.6432H196.495C198.431 67.6432 200 66.0738 200 64.1381V57.4418C199.895 55.5061 198.378 53.989 196.547 53.8844ZM150.667 32.8538V24.1172C150.667 22.8616 149.673 21.8676 148.417 21.8676H145.749C144.494 21.8676 143.5 22.8616 143.5 24.1172V32.8538H139.681V16.2176H157.311L172.849 32.8538H150.667Z" fill="#24A54A"/>
</svg>
