<svg width="200" height="63" viewBox="0 0 200 63" fill="none" xmlns="http://www.w3.org/2000/svg">
<g clip-path="url(#clip0)">
<path d="M105.824 42.3193C103.997 42.3193 102.207 42.804 100.641 43.7734C98.3669 45.153 96.7637 47.3529 96.1298 49.9256C95.4959 52.4983 95.9061 55.1829 97.2857 57.4573C99.1127 60.4402 102.282 62.2672 105.824 62.2672C107.651 62.2672 109.441 61.7825 111.007 60.813C113.281 59.4335 114.885 57.2336 115.518 54.6609C116.152 52.0882 115.742 49.4036 114.363 47.1292C112.536 44.109 109.366 42.3193 105.824 42.3193ZM110.82 53.505C110.485 54.8473 109.665 55.9659 108.509 56.6743C107.688 57.159 106.794 57.42 105.861 57.42C104.034 57.42 102.394 56.4879 101.462 54.9592C100.753 53.8033 100.53 52.4237 100.865 51.0814C101.201 49.7392 102.021 48.6206 103.177 47.9122C103.997 47.4274 104.892 47.1664 105.824 47.1664C107.651 47.1664 109.292 48.0986 110.224 49.6273C110.932 50.7832 111.156 52.1627 110.82 53.505Z" fill="#24A54A"/>
<path d="M146.652 4.10143H143.11C140.649 4.10143 138.636 6.11486 138.636 8.57572V35.3096H118.949V34.1164C118.949 32.3267 117.495 30.8726 115.668 30.8726H114.512L89.1574 0.745715C88.7845 0.298286 88.1879 0 87.5914 0H84.6085C83.8628 0 83.1916 0.372857 82.8188 1.00671C82.4459 1.64057 82.4459 2.42357 82.8188 3.05743L83.9374 4.99629L72.8262 30.2387C72.8262 30.2387 72.8262 30.2014 72.7889 30.2014L74.0566 34.0046C74.0566 33.9673 74.0566 33.9673 74.0566 33.93L85.5779 7.83L98.8889 30.9099C97.3602 31.1709 96.2044 32.5132 96.2044 34.1164V35.3096H83.4526C82.1104 35.3096 81.0664 36.3909 81.0664 37.6959V41.0516C81.0664 42.3939 82.1476 43.4379 83.4526 43.4379H88.1507C88.0388 43.6989 88.0015 43.9599 88.0015 44.2582V47.0919H83.6391C82.9679 47.0919 82.4086 47.6512 82.4086 48.3223C82.4086 48.9934 82.9679 49.5527 83.6391 49.5527H88.0015V49.851C88.0015 51.1933 89.0828 52.2373 90.3878 52.2373H93.6317C93.6317 51.2679 93.7435 50.2984 93.9672 49.329C94.5265 47.0173 95.7197 44.9666 97.3975 43.3633C97.5467 43.2142 97.6958 43.1023 97.8449 42.9904L97.8822 42.9532C98.0314 42.8413 98.1432 42.7294 98.2924 42.6176C98.3297 42.5803 98.3669 42.5803 98.4042 42.543C98.5161 42.4684 98.6279 42.3566 98.7771 42.282C98.9635 42.1329 99.1499 42.021 99.3737 41.9092C99.4109 41.8719 99.4482 41.8346 99.5228 41.8346C99.8584 41.6482 100.194 41.4617 100.567 41.2753C101.35 40.9024 102.17 40.6042 102.99 40.4177C103.065 40.4177 103.14 40.3804 103.214 40.3804C103.363 40.3432 103.512 40.3059 103.662 40.3059C103.773 40.2686 103.885 40.2686 103.997 40.2313C104.109 40.194 104.258 40.194 104.37 40.194C104.519 40.1567 104.668 40.1567 104.817 40.1567C104.929 40.1567 105.004 40.1567 105.116 40.1194C105.377 40.1194 105.638 40.0822 105.861 40.0822C106.085 40.0822 106.309 40.0822 106.533 40.0822C106.607 40.0822 106.682 40.0822 106.719 40.0822C106.868 40.0822 107.017 40.1194 107.166 40.1194C107.241 40.1194 107.316 40.1194 107.39 40.1567C107.539 40.1567 107.688 40.194 107.838 40.2313C107.912 40.2313 107.987 40.2686 108.061 40.2686C108.21 40.3059 108.36 40.3432 108.509 40.3432C108.583 40.3432 108.621 40.3804 108.695 40.3804C108.882 40.4177 109.068 40.4923 109.292 40.5296H109.329C109.553 40.6042 109.776 40.6787 109.963 40.7533C110.149 40.8279 110.373 40.9024 110.559 40.977C110.597 40.977 110.634 41.0143 110.671 41.0143C110.82 41.0889 111.007 41.1634 111.156 41.238C111.529 41.4244 111.939 41.6482 112.275 41.8719C113.878 42.8786 115.257 44.2209 116.301 45.936C117.495 47.8749 118.091 50.0747 118.091 52.2746H148.74C150.082 52.2746 151.126 51.1933 151.126 49.8883V8.57572C151.126 6.11486 149.113 4.10143 146.652 4.10143Z" fill="#24A54A"/>
<path d="M70.4772 27.666C66.5622 25.056 53.9223 28.449 52.5801 28.8964C52.5801 28.8964 40.8351 23.6019 24.9513 28.971C13.3555 32.886 5.89833 39.9703 2.69175 43.5124C1.49861 44.8174 0.752897 45.5259 1.57318 47.9494C2.39347 50.373 2.80361 51.6407 2.80361 51.6407C1.46133 52.0882 0.641039 53.5796 1.08847 54.9219L2.13247 58.0539C2.5799 59.3962 4.03404 60.1046 5.37633 59.6572L7.61347 59.1724C7.09147 58.203 6.7559 57.1217 6.64404 55.9659C6.45761 53.8033 7.12876 51.678 8.50833 50.0002C9.47776 48.8443 10.7455 47.9867 12.1623 47.502C14.8842 46.5699 17.8298 47.1292 20.0296 48.9934C21.7075 50.4103 22.7142 52.3492 22.9006 54.549C22.9006 54.7354 22.9379 54.8846 22.9379 55.071C30.8425 52.4237 44.6382 47.8003 55.6002 44.109C54.7054 42.9159 54.1461 41.4617 53.9969 39.933C53.8105 37.7704 54.4816 35.6452 55.8612 33.9673C56.8306 32.8114 58.0984 31.9539 59.5152 31.4692C62.2371 30.537 65.1826 31.0963 67.3825 32.9606C69.0604 34.3774 70.0671 36.3163 70.2535 38.5162C70.2908 38.7399 70.2908 38.9636 70.2908 39.1873C71.1111 38.9263 71.6704 38.7026 71.9686 38.628C73.6092 38.0687 74.2058 36.1672 73.9821 34.0046C73.9821 34.0046 73.7211 32.1776 72.7144 30.2014C72.3788 29.4184 71.4094 28.2999 70.4772 27.666ZM48.1431 31.4319C47.3601 31.6929 13.3928 41.76 11.7895 42.282C10.1862 42.804 9.77604 42.282 9.99976 41.3126C10.5963 38.9636 14.2876 34.5266 25.1751 30.8353C36.8082 26.883 44.9738 28.7473 48.4413 30.0523C49.5599 30.4997 48.9261 31.1336 48.1431 31.4319Z" fill="#24A54A"/>
<path d="M66.6368 33.9673C64.7725 32.4013 62.3116 31.9539 59.9999 32.6996C58.8068 33.1097 57.7628 33.8182 56.9425 34.7876C55.7494 36.2044 55.1901 37.9942 55.3392 39.8212C55.4884 41.6482 56.3459 43.326 57.7628 44.5192C59.6271 46.0852 62.0879 46.5326 64.3996 45.7869C65.5928 45.3767 66.6368 44.6683 67.4571 43.6989C68.6502 42.282 69.2095 40.4923 69.0604 38.6653C68.9112 36.801 68.0536 35.1604 66.6368 33.9673ZM64.8843 41.499C64.4742 41.9837 63.9522 42.3566 63.3183 42.543C62.1625 42.9532 60.8948 42.6922 59.9626 41.9092C59.2542 41.3126 58.8068 40.455 58.7322 39.5229C58.6576 38.5907 58.9186 37.6959 59.5525 36.9874C59.9626 36.5027 60.4846 36.1299 61.1185 35.9434C62.2743 35.5333 63.5421 35.7943 64.4742 36.5773C65.1826 37.1739 65.6301 38.0314 65.7046 38.9636C65.7792 39.8584 65.4809 40.7906 64.8843 41.499Z" fill="#24A54A"/>
<path d="M19.2466 50.0002C17.3823 48.4342 14.9215 47.9867 12.6098 48.7324C11.4166 49.1426 10.3726 49.851 9.55233 50.8204C8.35919 52.2373 7.7999 54.027 7.94904 55.854C8.09819 57.681 8.95576 59.3589 10.3726 60.552C12.2369 62.118 14.6978 62.5655 17.0095 61.8197C18.2026 61.4096 19.2466 60.7012 20.0669 59.7317C21.26 58.3149 21.8193 56.5252 21.6702 54.6982C21.521 52.8339 20.6635 51.156 19.2466 50.0002ZM17.4942 57.4946C17.084 57.9793 16.562 58.3522 15.9282 58.5386C14.7723 58.9487 13.5046 58.6877 12.5725 57.9047C11.864 57.3082 11.4166 56.4506 11.342 55.5184C11.2675 54.5863 11.5285 53.6914 12.1623 52.983C12.5725 52.4983 13.0945 52.1254 13.7283 51.939C14.8842 51.5289 16.1519 51.7899 17.084 52.5729C17.7925 53.1694 18.2399 54.027 18.3145 54.9592C18.389 55.8913 18.0908 56.7862 17.4942 57.4946Z" fill="#24A54A"/>
<path d="M188.375 46.3462C187.554 45.2649 186.548 44.3327 185.392 43.6616C185.392 43.6616 185.355 43.6616 185.355 43.6243C185.205 43.5497 185.094 43.4752 184.944 43.4006C184.907 43.3633 184.87 43.3633 184.795 43.326C184.683 43.2514 184.572 43.2142 184.422 43.1396C184.348 43.1023 184.311 43.065 184.236 43.065C184.124 43.0277 184.012 42.9904 183.9 42.9159C183.826 42.8786 183.751 42.8413 183.677 42.8413C183.565 42.804 183.453 42.7667 183.341 42.7294C183.267 42.6922 183.155 42.6922 183.08 42.6549C182.968 42.6176 182.894 42.5803 182.782 42.5803C182.67 42.543 182.595 42.543 182.484 42.5057C182.372 42.4684 182.297 42.4684 182.185 42.4312C182.073 42.3939 181.962 42.3939 181.85 42.3939C181.775 42.3939 181.663 42.3566 181.589 42.3566C181.44 42.3566 181.328 42.3193 181.179 42.3193C181.104 42.3193 181.029 42.3193 180.955 42.282C180.731 42.282 180.545 42.2447 180.321 42.2447C178.494 42.2447 176.704 42.7294 175.138 43.6989C174.877 43.8853 174.579 44.0344 174.355 44.2209C174.094 44.4073 173.871 44.631 173.61 44.8174C173.386 45.0412 173.162 45.2649 172.938 45.4886C172.715 45.7123 172.528 45.9733 172.342 46.2343C171.559 47.2783 171 48.5087 170.664 49.8137C170.03 52.3864 170.44 55.071 171.82 57.3454C173.647 60.3283 176.816 62.1553 180.358 62.1553C182.185 62.1553 183.975 61.6706 185.541 60.7012C187.815 59.3216 189.419 57.1217 190.053 54.549C190.686 51.9763 190.276 49.2917 188.897 47.0173C188.71 46.8309 188.524 46.6072 188.375 46.3462ZM185.355 53.505C185.019 54.8473 184.199 55.9659 183.043 56.6743C182.223 57.159 181.328 57.42 180.396 57.42C178.569 57.42 176.928 56.4879 175.996 54.9592C175.287 53.8033 175.064 52.4237 175.399 51.0814C175.735 49.7392 176.555 48.6206 177.711 47.9122C178.531 47.4274 179.426 47.1664 180.358 47.1664C182.185 47.1664 183.826 48.0986 184.758 49.6273C185.429 50.7832 185.653 52.1627 185.355 53.505Z" fill="#24A54A"/>
<path d="M197.584 42.5057C197.622 42.3193 197.622 42.1329 197.622 41.9464C197.622 41.9464 197.622 40.1194 197.622 39.15C197.622 38.1806 196.689 38.2179 196.205 38.0314C194.676 37.4722 193.893 35.757 194.49 34.2656C194.862 33.2589 195.72 32.5877 196.727 32.4013C196.988 32.364 197.659 32.2149 197.025 31.2827C196.317 30.2387 195.273 29.4184 193.968 29.1947L184.236 26.8457L171.41 13.1246C171.111 12.8263 170.739 12.6399 170.328 12.6399H154.929C154.519 12.6399 154.184 12.789 153.923 13.05C153.513 13.311 153.252 13.7584 153.252 14.2804V34.6012C153.252 34.6757 153.252 34.7503 153.289 34.8622L153.326 45.8614V49.8137C153.326 51.1933 154.445 52.3119 155.824 52.3119H168.166C168.166 51.3424 168.278 50.373 168.501 49.4036C168.762 48.3223 169.173 47.2783 169.695 46.3462C170.067 45.675 170.515 45.0412 171 44.4446C171 44.4446 171 44.4446 171.037 44.4073C171.186 44.2209 171.372 44.0344 171.559 43.848L171.596 43.8107C171.745 43.6616 171.894 43.5124 172.081 43.3633C172.118 43.326 172.155 43.2887 172.193 43.2887C172.379 43.1396 172.528 42.9904 172.715 42.8413C172.752 42.804 172.789 42.7667 172.827 42.7294C173.199 42.4312 173.61 42.1329 174.057 41.8719C175.959 40.716 178.158 40.0822 180.396 40.0822C183.117 40.0822 185.653 40.9397 187.741 42.5057C187.741 42.5057 187.741 42.5057 187.778 42.5057C187.927 42.6176 188.076 42.7294 188.226 42.8786C188.3 42.9532 188.375 43.0277 188.449 43.065C188.561 43.1396 188.636 43.2514 188.748 43.326C188.822 43.4006 188.897 43.4752 188.971 43.5497C189.083 43.6616 189.195 43.7734 189.307 43.8853C189.344 43.9226 189.381 43.9599 189.456 44.0344C189.605 44.1836 189.754 44.37 189.903 44.5564C189.941 44.631 190.015 44.6683 190.053 44.7429C190.164 44.892 190.276 45.0039 190.351 45.153C190.388 45.2276 190.425 45.2649 190.463 45.3394C190.612 45.5259 190.724 45.7496 190.873 45.936C192.066 47.8749 192.663 50.0747 192.663 52.2746H197.472C198.852 52.2746 199.971 51.156 199.971 49.7764V45.0039C199.971 43.6616 198.927 42.5803 197.584 42.5057ZM164.922 27.5169V21.2901C164.922 20.3953 164.214 19.6869 163.319 19.6869H161.417C160.522 19.6869 159.814 20.3953 159.814 21.2901V27.5169H157.092V15.66H169.657L180.731 27.5169H164.922Z" fill="#24A54A"/>
</g>
<defs>
<clipPath id="clip0">
<rect width="200" height="62.6866" fill="white"/>
</clipPath>
</defs>
</svg>
